<svg viewBox="0 0 19.8333 28.3333" x="0" y="0" fill="none" xmlns="http://www.w3.org/2000/svg"><path id="Vector_25" d="M9.9166,19.8367c3.13,0 5.67,-2.55 5.67,-5.67v-8.5c0,-3.13 -2.54,-5.67 -5.67,-5.67c-3.13,0 -5.67,2.54 -5.67,5.67v8.5c0,3.12 2.54,5.67 5.67,5.67zM19.8366,14.1667v-2.83c0,-0.38 -0.15,-0.74 -0.42,-1.01c-0.26,-0.26 -0.62,-0.41 -1,-0.41c-0.38,0 -0.74,0.15 -1,0.41c-0.27,0.27 -0.42,0.63 -0.42,1.01v2.83c0,3.91 -3.17,7.08 -7.08,7.08c-3.91,0 -7.08,-3.17 -7.08,-7.08v-2.83c0,-0.38 -0.15,-0.74 -0.42,-1.01c-0.26,-0.26 -0.62,-0.41 -1,-0.41c-0.38,0 -0.74,0.15 -1,0.41c-0.27,0.27 -0.42,0.63 -0.42,1.01v2.83c0,4.99 3.71,9.11 8.5,9.8v1.53h-4.25c-0.37,0 -0.73,0.15 -1,0.42c-0.26,0.26 -0.41,0.62 -0.41,1c0,0.38 0.15,0.74 0.41,1c0.27,0.27 0.63,0.42 1,0.42h11.34c0.37,0 0.73,-0.15 1,-0.42c0.26,-0.26 0.41,-0.62 0.41,-1c0,-0.38 -0.15,-0.74 -0.41,-1c-0.27,-0.27 -0.63,-0.42 -1,-0.42h-4.25v-1.53c4.79,-0.69 8.5,-4.81 8.5,-9.8z" fill="currentColor" xmlns="http://www.w3.org/2000/svg"/></svg>