<svg viewBox="0 0 16.576 17.5" x="0" y="0" fill="none" xmlns="http://www.w3.org/2000/svg"><path id="Vector" d="M1.6,11.6667v-10h-1.6v-1.6667h2.4c0.224,0 0.4133,0.0806 0.568,0.2417c0.1547,0.1611 0.232,0.3583 0.232,0.5916v10h9.952l1.6,-6.6666h-9.952v-1.6667h10.976c0.224,0 0.4133,0.0806 0.568,0.2417c0.1547,0.1611 0.232,0.3583 0.232,0.5916c0,0.0667 -0.0107,0.1334 -0.032,0.2l-2,8.3334c-0.0427,0.1889 -0.136,0.3416 -0.28,0.4583c-0.144,0.1167 -0.3067,0.175 -0.488,0.175h-11.376c-0.224,0 -0.4133,-0.0806 -0.568,-0.2417c-0.1547,-0.1611 -0.232,-0.3583 -0.232,-0.5916zM3.2,17.5c-0.288,0 -0.5547,-0.075 -0.8,-0.225c-0.2453,-0.15 -0.44,-0.3528 -0.584,-0.6083c-0.144,-0.2556 -0.216,-0.5334 -0.216,-0.8334c0,-0.3 0.072,-0.5777 0.216,-0.8333c0.144,-0.2556 0.3387,-0.4583 0.584,-0.6083c0.2453,-0.15 0.512,-0.225 0.8,-0.225c0.288,0 0.5547,0.075 0.8,0.225c0.2453,0.15 0.44,0.3527 0.584,0.6083c0.144,0.2556 0.216,0.5333 0.216,0.8333c0,0.3 -0.072,0.5778 -0.216,0.8334c-0.144,0.2555 -0.3387,0.4583 -0.584,0.6083c-0.2453,0.15 -0.512,0.225 -0.8,0.225zM12.8,17.5c-0.288,0 -0.5547,-0.075 -0.8,-0.225c-0.2453,-0.15 -0.44,-0.3528 -0.584,-0.6083c-0.144,-0.2556 -0.216,-0.5334 -0.216,-0.8334c0,-0.3 0.072,-0.5777 0.216,-0.8333c0.144,-0.2556 0.3387,-0.4583 0.584,-0.6083c0.2453,-0.15 0.512,-0.225 0.8,-0.225c0.288,0 0.5547,0.075 0.8,0.225c0.2453,0.15 0.44,0.3527 0.584,0.6083c0.144,0.2556 0.216,0.5333 0.216,0.8333c0,0.3 -0.072,0.5778 -0.216,0.8334c-0.144,0.2555 -0.3387,0.4583 -0.584,0.6083c-0.2453,0.15 -0.512,0.225 -0.8,0.225z" fill="currentColor" xmlns="http://www.w3.org/2000/svg"/></svg>