<svg viewBox="0 0 322 116.256" fill="none" xmlns="http://www.w3.org/2000/svg" xmlns:xlink="http://www.w3.org/1999/xlink" id="95a457a5" x="0" y="0"><g id="Frame 19" data-node-id="156:404"><g id="👨‍💻 Bubble Sender" data-node-id="156:411" filter="url(#filter0_d_156_404)">
<path d="M0.5,10.42c0,-5.479 4.4413,-9.92 9.92,-9.92h301.16c5.479,0 9.92,4.441 9.92,9.92v79.84c0,5.479 -4.441,9.92 -9.92,9.92h-311.08z" fill="#00843D" shape-rendering="crispEdges"/>
<g id="✏️ Messages" data-node-id="156:412">
<path id="Rapidly build stunning Web Apps with Frest 🚀 Developer friendly, Highly customizable &amp; Carefully crafted HTML Admin Dashboard Template." data-node-id="156:413" d="M18.1252,25.727v-9.019h3.0472c0.7046,0 1.2829,0.121 1.735,0.361c0.452,0.238 0.7867,0.566 1.0039,0.982c0.2173,0.417 0.3259,0.891 0.3259,1.423c0,0.531 -0.1086,1.002 -0.3259,1.413c-0.2172,0.411 -0.5504,0.734 -0.9995,0.969c-0.4492,0.232 -1.0231,0.348 -1.7218,0.348h-2.4659v-0.987h2.4307c0.4814,0 0.8689,-0.07 1.1625,-0.211c0.2965,-0.141 0.5108,-0.34 0.6429,-0.599c0.135,-0.261 0.2025,-0.572 0.2025,-0.933c0,-0.361 -0.0675,-0.677 -0.2025,-0.947c-0.135,-0.27 -0.3508,-0.479 -0.6473,-0.625c-0.2965,-0.15 -0.6884,-0.225 -1.1757,-0.225h-1.9199v8.05zM22.3701,21.675l2.2194,4.052h-1.2682l-2.1841,-4.052zM27.9063,25.885c-0.4286,0 -0.8175,-0.081 -1.1669,-0.242c-0.3493,-0.164 -0.6267,-0.401 -0.8322,-0.709c-0.2055,-0.311 -0.3083,-0.687 -0.3083,-1.127c0,-0.388 0.0764,-0.702 0.229,-0.943c0.1527,-0.243 0.3567,-0.434 0.6121,-0.572c0.2554,-0.138 0.5372,-0.241 0.8454,-0.308c0.3112,-0.071 0.6239,-0.127 0.938,-0.168c0.411,-0.053 0.7441,-0.092 0.9995,-0.119c0.2584,-0.029 0.4463,-0.077 0.5637,-0.145c0.1203,-0.067 0.1805,-0.185 0.1805,-0.352v-0.035c0,-0.435 -0.1189,-0.772 -0.3567,-1.013c-0.2348,-0.241 -0.5915,-0.361 -1.07,-0.361c-0.4961,0 -0.8851,0.108 -1.1669,0.326c-0.2818,0.217 -0.48,0.449 -0.5945,0.695l-0.9863,-0.352c0.1761,-0.411 0.411,-0.731 0.7045,-0.96c0.2965,-0.232 0.6194,-0.393 0.9688,-0.484c0.3523,-0.094 0.6987,-0.141 1.0392,-0.141c0.2172,0 0.4667,0.026 0.7486,0.079c0.2847,0.05 0.5592,0.154 0.8234,0.313c0.2671,0.158 0.4888,0.398 0.6649,0.718c0.1762,0.319 0.2642,0.748 0.2642,1.285v4.457h-1.0392v-0.916h-0.0528c-0.0705,0.146 -0.1879,0.303 -0.3523,0.471c-0.1644,0.167 -0.3831,0.31 -0.6561,0.427c-0.273,0.117 -0.6062,0.176 -0.9996,0.176zM28.0648,24.952c0.411,0 0.7574,-0.081 1.0392,-0.243c0.2848,-0.161 0.4991,-0.37 0.6429,-0.625c0.1468,-0.255 0.2202,-0.524 0.2202,-0.806v-0.951c-0.044,0.053 -0.1409,0.101 -0.2906,0.145c-0.1468,0.042 -0.3171,0.078 -0.5108,0.111c-0.1908,0.029 -0.3772,0.055 -0.5592,0.079c-0.1791,0.02 -0.3244,0.038 -0.436,0.053c-0.2701,0.035 -0.5225,0.092 -0.7574,0.171c-0.2319,0.077 -0.4198,0.193 -0.5636,0.348c-0.1409,0.153 -0.2114,0.361 -0.2114,0.626c0,0.361 0.1336,0.634 0.4007,0.819c0.2701,0.182 0.6121,0.273 1.026,0.273zM32.9031,28.263v-9.3h1.004v1.074h0.1233c0.0763,-0.117 0.182,-0.267 0.317,-0.449c0.138,-0.185 0.3347,-0.349 0.5901,-0.493c0.2583,-0.147 0.6076,-0.22 1.048,-0.22c0.5695,0 1.0715,0.142 1.5059,0.427c0.4345,0.285 0.7736,0.688 1.0172,1.211c0.2437,0.522 0.3655,1.139 0.3655,1.849c0,0.717 -0.1218,1.338 -0.3655,1.863c-0.2436,0.523 -0.5812,0.928 -1.0128,1.215c-0.4315,0.285 -0.9291,0.427 -1.4927,0.427c-0.4345,0 -0.7824,-0.071 -1.0436,-0.215c-0.2613,-0.147 -0.4624,-0.313 -0.6033,-0.498c-0.1409,-0.188 -0.2495,-0.343 -0.3258,-0.467h-0.0881v3.576zM33.9247,22.345c0,0.511 0.0748,0.961 0.2246,1.352c0.1497,0.387 0.3684,0.691 0.6561,0.911c0.2877,0.217 0.6399,0.326 1.0568,0.326c0.4344,0 0.797,-0.115 1.0876,-0.344c0.2936,-0.231 0.5138,-0.543 0.6605,-0.933c0.1497,-0.393 0.2246,-0.831 0.2246,-1.312c0,-0.476 -0.0734,-0.904 -0.2202,-1.286c-0.1438,-0.385 -0.3625,-0.688 -0.6561,-0.912c-0.2906,-0.226 -0.6561,-0.339 -1.0964,-0.339c-0.4227,0 -0.778,0.108 -1.0656,0.322c-0.2877,0.211 -0.505,0.508 -0.6518,0.889c-0.1467,0.379 -0.2201,0.821 -0.2201,1.326zM40.4593,25.727v-6.764h1.0392v6.764zM40.9877,17.836c-0.2025,0 -0.3772,-0.069 -0.524,-0.207c-0.1438,-0.138 -0.2157,-0.304 -0.2157,-0.498c0,-0.194 0.0719,-0.36 0.2157,-0.497c0.1468,-0.138 0.3215,-0.207 0.524,-0.207c0.2026,0 0.3758,0.069 0.5196,0.207c0.1468,0.137 0.2202,0.303 0.2202,0.497c0,0.194 -0.0734,0.36 -0.2202,0.498c-0.1438,0.138 -0.317,0.207 -0.5196,0.207zM45.9559,25.867c-0.5636,0 -1.0612,-0.142 -1.4928,-0.427c-0.4315,-0.287 -0.7691,-0.692 -1.0127,-1.215c-0.2437,-0.525 -0.3655,-1.146 -0.3655,-1.863c0,-0.71 0.1218,-1.327 0.3655,-1.849c0.2436,-0.523 0.5827,-0.926 1.0171,-1.211c0.4345,-0.285 0.9365,-0.427 1.506,-0.427c0.4403,0 0.7882,0.073 1.0436,0.22c0.2583,0.144 0.455,0.308 0.5901,0.493c0.1379,0.182 0.2451,0.332 0.3214,0.449h0.0881v-3.329h1.0392v9.019h-1.004v-1.04h-0.1233c-0.0763,0.124 -0.1849,0.279 -0.3258,0.467c-0.1409,0.185 -0.342,0.351 -0.6033,0.498c-0.2613,0.144 -0.6091,0.215 -1.0436,0.215zM46.0968,24.934c0.4169,0 0.7691,-0.109 1.0568,-0.326c0.2877,-0.22 0.5064,-0.524 0.6561,-0.911c0.1497,-0.391 0.2246,-0.841 0.2246,-1.352c0,-0.505 -0.0734,-0.947 -0.2202,-1.326c-0.1467,-0.381 -0.364,-0.678 -0.6517,-0.889c-0.2877,-0.214 -0.6429,-0.322 -1.0656,-0.322c-0.4403,0 -0.8073,0.113 -1.1008,0.339c-0.2907,0.224 -0.5094,0.527 -0.6562,0.912c-0.1438,0.382 -0.2157,0.81 -0.2157,1.286c0,0.481 0.0734,0.919 0.2201,1.312c0.1498,0.39 0.3699,0.702 0.6606,0.933c0.2935,0.229 0.6575,0.344 1.092,0.344zM52.1427,16.708v9.019h-1.0392v-9.019zM54.7154,28.263c-0.1762,0 -0.3332,-0.015 -0.4712,-0.044c-0.138,-0.027 -0.2334,-0.053 -0.2862,-0.079l0.2642,-0.916c0.2525,0.064 0.4756,0.088 0.6693,0.07c0.1938,-0.017 0.3655,-0.104 0.5152,-0.26c0.1527,-0.152 0.2921,-0.4 0.4183,-0.744l0.1938,-0.528l-2.5012,-6.799h1.1273l1.8671,5.39h0.0704l1.8671,-5.39h1.1272l-2.871,7.75c-0.1292,0.349 -0.2891,0.638 -0.48,0.867c-0.1908,0.232 -0.4124,0.404 -0.6649,0.516c-0.2495,0.111 -0.5313,0.167 -0.8454,0.167zM64.5768,25.727v-9.019h1.0392v3.329h0.0881c0.0763,-0.117 0.182,-0.267 0.317,-0.449c0.138,-0.185 0.3347,-0.349 0.5899,-0.493c0.259,-0.147 0.608,-0.22 1.048,-0.22c0.57,0 1.072,0.142 1.506,0.427c0.435,0.285 0.774,0.688 1.017,1.211c0.244,0.522 0.366,1.139 0.366,1.849c0,0.717 -0.122,1.338 -0.366,1.863c-0.243,0.523 -0.581,0.928 -1.012,1.215c-0.432,0.285 -0.93,0.427 -1.493,0.427c-0.435,0 -0.783,-0.071 -1.044,-0.215c-0.2611,-0.147 -0.4622,-0.313 -0.6031,-0.498c-0.1409,-0.188 -0.2495,-0.343 -0.3258,-0.467h-0.1233v1.04zM65.5984,22.345c0,0.511 0.0749,0.961 0.2246,1.352c0.1497,0.387 0.3684,0.691 0.6561,0.911c0.2879,0.217 0.6399,0.326 1.0569,0.326c0.434,0 0.797,-0.115 1.088,-0.344c0.293,-0.231 0.513,-0.543 0.66,-0.933c0.15,-0.393 0.225,-0.831 0.225,-1.312c0,-0.476 -0.074,-0.904 -0.221,-1.286c-0.143,-0.385 -0.362,-0.688 -0.656,-0.912c-0.29,-0.226 -0.656,-0.339 -1.096,-0.339c-0.423,0 -0.778,0.108 -1.0657,0.322c-0.2877,0.211 -0.5049,0.508 -0.6517,0.889c-0.1468,0.379 -0.2202,0.821 -0.2202,1.326zM76.4,22.961v-3.998h1.039v6.764h-1.039v-1.145h-0.07c-0.159,0.343 -0.406,0.635 -0.74,0.876c-0.335,0.238 -0.758,0.357 -1.268,0.357c-0.423,0 -0.799,-0.093 -1.128,-0.278c-0.329,-0.188 -0.587,-0.469 -0.775,-0.845c-0.188,-0.379 -0.282,-0.856 -0.282,-1.431v-4.298h1.04v4.227c0,0.493 0.138,0.887 0.414,1.18c0.278,0.294 0.634,0.441 1.065,0.441c0.259,0 0.521,-0.066 0.788,-0.198c0.27,-0.133 0.497,-0.335 0.679,-0.608c0.184,-0.273 0.277,-0.621 0.277,-1.044zM79.343,25.727v-6.764h1.039v6.764zM79.871,17.836c-0.203,0 -0.377,-0.069 -0.524,-0.207c-0.144,-0.138 -0.216,-0.304 -0.216,-0.498c0,-0.194 0.072,-0.36 0.216,-0.497c0.147,-0.138 0.321,-0.207 0.524,-0.207c0.203,0 0.376,0.069 0.52,0.207c0.146,0.137 0.22,0.303 0.22,0.497c0,0.194 -0.074,0.36 -0.22,0.498c-0.144,0.138 -0.317,0.207 -0.52,0.207zM83.324,16.708v9.019h-1.039v-9.019zM87.782,25.867c-0.564,0 -1.062,-0.142 -1.493,-0.427c-0.432,-0.287 -0.769,-0.692 -1.013,-1.215c-0.244,-0.525 -0.365,-1.146 -0.365,-1.863c0,-0.71 0.121,-1.327 0.365,-1.849c0.244,-0.523 0.583,-0.926 1.017,-1.211c0.435,-0.285 0.937,-0.427 1.506,-0.427c0.441,0 0.788,0.073 1.044,0.22c0.258,0.144 0.455,0.308 0.59,0.493c0.138,0.182 0.245,0.332 0.321,0.449h0.088v-3.329h1.04v9.019h-1.004v-1.04h-0.124c-0.076,0.124 -0.185,0.279 -0.325,0.467c-0.141,0.185 -0.342,0.351 -0.604,0.498c-0.261,0.144 -0.609,0.215 -1.043,0.215zM87.923,24.934c0.416,0 0.769,-0.109 1.056,-0.326c0.288,-0.22 0.507,-0.524 0.657,-0.911c0.149,-0.391 0.224,-0.841 0.224,-1.352c0,-0.505 -0.073,-0.947 -0.22,-1.326c-0.147,-0.381 -0.364,-0.678 -0.652,-0.889c-0.287,-0.214 -0.643,-0.322 -1.065,-0.322c-0.441,0 -0.808,0.113 -1.101,0.339c-0.291,0.224 -0.51,0.527 -0.656,0.912c-0.144,0.382 -0.216,0.81 -0.216,1.286c0,0.481 0.073,0.919 0.22,1.312c0.15,0.39 0.37,0.702 0.661,0.933c0.293,0.229 0.657,0.344 1.092,0.344zM101.208,20.478l-0.934,0.264c-0.059,-0.156 -0.145,-0.307 -0.26,-0.454c-0.111,-0.149 -0.264,-0.273 -0.458,-0.37c-0.193,-0.096 -0.441,-0.145 -0.744,-0.145c-0.414,0 -0.759,0.096 -1.035,0.286c-0.273,0.188 -0.409,0.428 -0.409,0.718c0,0.258 0.094,0.462 0.282,0.612c0.188,0.15 0.481,0.275 0.88,0.374l1.004,0.247c0.605,0.147 1.056,0.371 1.352,0.674c0.297,0.299 0.445,0.685 0.445,1.158c0,0.387 -0.112,0.734 -0.335,1.039c-0.22,0.305 -0.528,0.546 -0.924,0.722c-0.397,0.176 -0.858,0.264 -1.383,0.264c-0.69,0 -1.261,-0.149 -1.713,-0.449c-0.452,-0.299 -0.738,-0.737 -0.859,-1.312l0.987,-0.246c0.094,0.364 0.271,0.637 0.533,0.819c0.264,0.182 0.609,0.273 1.034,0.273c0.485,0 0.869,-0.103 1.154,-0.309c0.288,-0.208 0.432,-0.458 0.432,-0.748c0,-0.235 -0.083,-0.432 -0.247,-0.59c-0.164,-0.162 -0.417,-0.282 -0.757,-0.361l-1.128,-0.265c-0.619,-0.146 -1.074,-0.374 -1.365,-0.682c-0.287,-0.311 -0.431,-0.7 -0.431,-1.167c0,-0.382 0.107,-0.719 0.321,-1.013c0.217,-0.293 0.512,-0.524 0.885,-0.691c0.376,-0.167 0.802,-0.251 1.277,-0.251c0.67,0 1.195,0.147 1.577,0.44c0.384,0.294 0.657,0.681 0.819,1.163zM105.837,18.963v0.881h-3.505v-0.881zM103.353,17.342h1.039v6.447c0,0.294 0.043,0.514 0.128,0.661c0.088,0.143 0.2,0.24 0.335,0.29c0.138,0.047 0.283,0.071 0.436,0.071c0.114,0 0.208,-0.006 0.282,-0.018c0.073,-0.015 0.132,-0.026 0.176,-0.035l0.211,0.933c-0.07,0.027 -0.169,0.053 -0.295,0.08c-0.126,0.029 -0.286,0.044 -0.48,0.044c-0.294,0 -0.581,-0.063 -0.863,-0.19c-0.279,-0.126 -0.511,-0.318 -0.696,-0.577c-0.182,-0.258 -0.273,-0.584 -0.273,-0.977zM111.662,22.961v-3.998h1.04v6.764h-1.04v-1.145h-0.07c-0.159,0.343 -0.405,0.635 -0.74,0.876c-0.334,0.238 -0.757,0.357 -1.268,0.357c-0.423,0 -0.798,-0.093 -1.127,-0.278c-0.329,-0.188 -0.587,-0.469 -0.775,-0.845c-0.188,-0.379 -0.282,-0.856 -0.282,-1.431v-4.298h1.039v4.227c0,0.493 0.138,0.887 0.414,1.18c0.279,0.294 0.634,0.441 1.066,0.441c0.258,0 0.521,-0.066 0.788,-0.198c0.27,-0.133 0.496,-0.335 0.678,-0.608c0.185,-0.273 0.277,-0.621 0.277,-1.044zM115.644,21.658v4.069h-1.039v-6.764h1.004v1.057h0.088c0.159,-0.344 0.399,-0.62 0.722,-0.828c0.323,-0.211 0.74,-0.317 1.251,-0.317c0.458,0 0.858,0.094 1.202,0.282c0.343,0.185 0.611,0.466 0.801,0.845c0.191,0.376 0.287,0.851 0.287,1.427v4.298h-1.04v-4.228c0,-0.531 -0.138,-0.945 -0.414,-1.241c-0.275,-0.3 -0.654,-0.45 -1.136,-0.45c-0.331,0 -0.628,0.072 -0.889,0.216c-0.258,0.144 -0.462,0.354 -0.612,0.63c-0.15,0.276 -0.225,0.61 -0.225,1.004zM122.898,21.658v4.069h-1.039v-6.764h1.004v1.057h0.088c0.158,-0.344 0.399,-0.62 0.722,-0.828c0.323,-0.211 0.74,-0.317 1.25,-0.317c0.458,0 0.859,0.094 1.202,0.282c0.344,0.185 0.611,0.466 0.802,0.845c0.191,0.376 0.286,0.851 0.286,1.427v4.298h-1.039v-4.228c0,-0.531 -0.138,-0.945 -0.414,-1.241c-0.276,-0.3 -0.655,-0.45 -1.136,-0.45c-0.332,0 -0.628,0.072 -0.89,0.216c-0.258,0.144 -0.462,0.354 -0.612,0.63c-0.149,0.276 -0.224,0.61 -0.224,1.004zM129.112,25.727v-6.764h1.039v6.764zM129.64,17.836c-0.202,0 -0.377,-0.069 -0.524,-0.207c-0.143,-0.138 -0.215,-0.304 -0.215,-0.498c0,-0.194 0.072,-0.36 0.215,-0.497c0.147,-0.138 0.322,-0.207 0.524,-0.207c0.203,0 0.376,0.069 0.52,0.207c0.147,0.137 0.22,0.303 0.22,0.497c0,0.194 -0.073,0.36 -0.22,0.498c-0.144,0.138 -0.317,0.207 -0.52,0.207zM133.094,21.658v4.069h-1.039v-6.764h1.004v1.057h0.088c0.158,-0.344 0.399,-0.62 0.722,-0.828c0.323,-0.211 0.74,-0.317 1.25,-0.317c0.458,0 0.859,0.094 1.203,0.282c0.343,0.185 0.61,0.466 0.801,0.845c0.191,0.376 0.286,0.851 0.286,1.427v4.298h-1.039v-4.228c0,-0.531 -0.138,-0.945 -0.414,-1.241c-0.276,-0.3 -0.655,-0.45 -1.136,-0.45c-0.332,0 -0.628,0.072 -0.889,0.216c-0.259,0.144 -0.463,0.354 -0.613,0.63c-0.149,0.276 -0.224,0.61 -0.224,1.004zM142.038,28.404c-0.502,0 -0.933,-0.065 -1.294,-0.194c-0.361,-0.126 -0.662,-0.293 -0.903,-0.502c-0.238,-0.205 -0.427,-0.426 -0.568,-0.66l0.828,-0.582c0.094,0.124 0.213,0.265 0.356,0.423c0.144,0.162 0.341,0.301 0.591,0.418c0.252,0.121 0.582,0.181 0.99,0.181c0.546,0 0.997,-0.132 1.352,-0.396c0.355,-0.265 0.533,-0.679 0.533,-1.242v-1.374h-0.088c-0.076,0.123 -0.185,0.276 -0.326,0.458c-0.138,0.179 -0.338,0.339 -0.599,0.48c-0.258,0.138 -0.608,0.207 -1.048,0.207c-0.546,0 -1.036,-0.129 -1.471,-0.388c-0.431,-0.258 -0.773,-0.634 -1.026,-1.127c-0.249,-0.493 -0.374,-1.092 -0.374,-1.796c0,-0.693 0.122,-1.297 0.366,-1.81c0.243,-0.517 0.582,-0.916 1.017,-1.198c0.434,-0.285 0.936,-0.427 1.506,-0.427c0.44,0 0.789,0.073 1.048,0.22c0.261,0.144 0.461,0.308 0.599,0.493c0.141,0.182 0.249,0.332 0.325,0.449h0.106v-1.074h1.004v6.957c0,0.582 -0.132,1.054 -0.396,1.418c-0.261,0.367 -0.614,0.636 -1.057,0.806c-0.44,0.173 -0.931,0.26 -1.471,0.26zM142.003,24.687c0.417,0 0.769,-0.095 1.057,-0.286c0.288,-0.191 0.506,-0.465 0.656,-0.823c0.15,-0.358 0.225,-0.787 0.225,-1.286c0,-0.487 -0.074,-0.917 -0.221,-1.29c-0.146,-0.373 -0.364,-0.665 -0.651,-0.877c-0.288,-0.211 -0.643,-0.317 -1.066,-0.317c-0.44,0 -0.807,0.112 -1.101,0.335c-0.29,0.223 -0.509,0.523 -0.656,0.898c-0.144,0.376 -0.216,0.793 -0.216,1.251c0,0.47 0.074,0.885 0.22,1.246c0.15,0.358 0.37,0.64 0.661,0.846c0.294,0.202 0.658,0.303 1.092,0.303zM152.131,25.727l-2.466,-9.019h1.11l1.884,7.345h0.088l1.92,-7.345h1.233l1.92,7.345h0.088l1.885,-7.345h1.109l-2.465,9.019h-1.128l-1.99,-7.187h-0.071l-1.99,7.187zM164.328,25.867c-0.651,0 -1.214,-0.143 -1.686,-0.431c-0.47,-0.291 -0.832,-0.696 -1.088,-1.215c-0.252,-0.523 -0.379,-1.131 -0.379,-1.823c0,-0.693 0.127,-1.304 0.379,-1.832c0.256,-0.532 0.611,-0.945 1.066,-1.242c0.458,-0.299 0.992,-0.449 1.603,-0.449c0.352,0 0.7,0.059 1.043,0.176c0.344,0.117 0.656,0.308 0.938,0.572c0.282,0.262 0.507,0.608 0.674,1.04c0.167,0.431 0.251,0.963 0.251,1.594v0.44h-5.214v-0.898h4.157c0,-0.382 -0.076,-0.722 -0.229,-1.022c-0.15,-0.299 -0.364,-0.536 -0.643,-0.709c-0.276,-0.173 -0.602,-0.26 -0.977,-0.26c-0.414,0 -0.772,0.103 -1.075,0.309c-0.299,0.202 -0.53,0.466 -0.691,0.792c-0.162,0.326 -0.242,0.675 -0.242,1.048v0.599c0,0.511 0.088,0.944 0.264,1.299c0.179,0.352 0.427,0.621 0.744,0.806c0.317,0.182 0.686,0.273 1.105,0.273c0.273,0 0.52,-0.038 0.74,-0.115c0.223,-0.079 0.415,-0.196 0.577,-0.352c0.161,-0.158 0.286,-0.355 0.374,-0.59l1.004,0.282c-0.105,0.34 -0.283,0.64 -0.533,0.898c-0.249,0.256 -0.557,0.455 -0.924,0.599c-0.367,0.141 -0.78,0.211 -1.238,0.211zM168.851,25.727v-9.019h1.039v3.329h0.088c0.076,-0.117 0.182,-0.267 0.317,-0.449c0.138,-0.185 0.335,-0.349 0.59,-0.493c0.258,-0.147 0.608,-0.22 1.048,-0.22c0.57,0 1.072,0.142 1.506,0.427c0.434,0.285 0.774,0.688 1.017,1.211c0.244,0.522 0.366,1.139 0.366,1.849c0,0.717 -0.122,1.338 -0.366,1.863c-0.243,0.523 -0.581,0.928 -1.013,1.215c-0.431,0.285 -0.929,0.427 -1.492,0.427c-0.435,0 -0.783,-0.071 -1.044,-0.215c-0.261,-0.147 -0.462,-0.313 -0.603,-0.498c-0.141,-0.188 -0.25,-0.343 -0.326,-0.467h-0.123v1.04zM169.872,22.345c0,0.511 0.075,0.961 0.225,1.352c0.15,0.387 0.368,0.691 0.656,0.911c0.288,0.217 0.64,0.326 1.057,0.326c0.434,0 0.797,-0.115 1.087,-0.344c0.294,-0.231 0.514,-0.543 0.661,-0.933c0.15,-0.393 0.224,-0.831 0.224,-1.312c0,-0.476 -0.073,-0.904 -0.22,-1.286c-0.144,-0.385 -0.362,-0.688 -0.656,-0.912c-0.29,-0.226 -0.656,-0.339 -1.096,-0.339c-0.423,0 -0.778,0.108 -1.066,0.322c-0.288,0.211 -0.505,0.508 -0.652,0.889c-0.146,0.379 -0.22,0.821 -0.22,1.326zM180.41,25.727h-1.145l3.311,-9.019h1.127l3.312,9.019h-1.145l-2.695,-7.592h-0.071zM180.832,22.204h4.615v0.969h-4.615zM188.278,28.263v-9.3h1.004v1.074h0.124c0.076,-0.117 0.182,-0.267 0.317,-0.449c0.138,-0.185 0.334,-0.349 0.59,-0.493c0.258,-0.147 0.608,-0.22 1.048,-0.22c0.569,0 1.071,0.142 1.506,0.427c0.434,0.285 0.773,0.688 1.017,1.211c0.244,0.522 0.366,1.139 0.366,1.849c0,0.717 -0.122,1.338 -0.366,1.863c-0.244,0.523 -0.581,0.928 -1.013,1.215c-0.431,0.285 -0.929,0.427 -1.493,0.427c-0.434,0 -0.782,-0.071 -1.043,-0.215c-0.261,-0.147 -0.462,-0.313 -0.603,-0.498c-0.141,-0.188 -0.25,-0.343 -0.326,-0.467h-0.088v3.576zM189.3,22.345c0,0.511 0.075,0.961 0.225,1.352c0.149,0.387 0.368,0.691 0.656,0.911c0.287,0.217 0.64,0.326 1.057,0.326c0.434,0 0.797,-0.115 1.087,-0.344c0.294,-0.231 0.514,-0.543 0.661,-0.933c0.149,-0.393 0.224,-0.831 0.224,-1.312c0,-0.476 -0.073,-0.904 -0.22,-1.286c-0.144,-0.385 -0.362,-0.688 -0.656,-0.912c-0.291,-0.226 -0.656,-0.339 -1.096,-0.339c-0.423,0 -0.778,0.108 -1.066,0.322c-0.288,0.211 -0.505,0.508 -0.652,0.889c-0.147,0.379 -0.22,0.821 -0.22,1.326zM195.835,28.263v-9.3h1.004v1.074h0.123c0.076,-0.117 0.182,-0.267 0.317,-0.449c0.138,-0.185 0.335,-0.349 0.59,-0.493c0.258,-0.147 0.608,-0.22 1.048,-0.22c0.57,0 1.072,0.142 1.506,0.427c0.435,0.285 0.774,0.688 1.017,1.211c0.244,0.522 0.366,1.139 0.366,1.849c0,0.717 -0.122,1.338 -0.366,1.863c-0.243,0.523 -0.581,0.928 -1.013,1.215c-0.431,0.285 -0.929,0.427 -1.492,0.427c-0.435,0 -0.783,-0.071 -1.044,-0.215c-0.261,-0.147 -0.462,-0.313 -0.603,-0.498c-0.141,-0.188 -0.25,-0.343 -0.326,-0.467h-0.088v3.576zM196.856,22.345c0,0.511 0.075,0.961 0.225,1.352c0.15,0.387 0.368,0.691 0.656,0.911c0.288,0.217 0.64,0.326 1.057,0.326c0.434,0 0.797,-0.115 1.087,-0.344c0.294,-0.231 0.514,-0.543 0.661,-0.933c0.15,-0.393 0.225,-0.831 0.225,-1.312c0,-0.476 -0.074,-0.904 -0.221,-1.286c-0.143,-0.385 -0.362,-0.688 -0.656,-0.912c-0.29,-0.226 -0.656,-0.339 -1.096,-0.339c-0.423,0 -0.778,0.108 -1.066,0.322c-0.287,0.211 -0.505,0.508 -0.652,0.889c-0.146,0.379 -0.22,0.821 -0.22,1.326zM208.182,20.478l-0.934,0.264c-0.058,-0.156 -0.145,-0.307 -0.259,-0.454c-0.112,-0.149 -0.265,-0.273 -0.458,-0.37c-0.194,-0.096 -0.442,-0.145 -0.745,-0.145c-0.413,0 -0.758,0.096 -1.034,0.286c-0.273,0.188 -0.41,0.428 -0.41,0.718c0,0.258 0.094,0.462 0.282,0.612c0.188,0.15 0.481,0.275 0.881,0.374l1.004,0.247c0.604,0.147 1.055,0.371 1.351,0.674c0.297,0.299 0.445,0.685 0.445,1.158c0,0.387 -0.111,0.734 -0.334,1.039c-0.221,0.305 -0.529,0.546 -0.925,0.722c-0.397,0.176 -0.857,0.264 -1.383,0.264c-0.69,0 -1.261,-0.149 -1.713,-0.449c-0.452,-0.299 -0.738,-0.737 -0.858,-1.312l0.986,-0.246c0.094,0.364 0.271,0.637 0.533,0.819c0.264,0.182 0.609,0.273 1.035,0.273c0.484,0 0.868,-0.103 1.153,-0.309c0.288,-0.208 0.432,-0.458 0.432,-0.748c0,-0.235 -0.082,-0.432 -0.247,-0.59c-0.164,-0.162 -0.417,-0.282 -0.757,-0.361l-1.128,-0.265c-0.619,-0.146 -1.074,-0.374 -1.365,-0.682c-0.287,-0.311 -0.431,-0.7 -0.431,-1.167c0,-0.382 0.107,-0.719 0.321,-1.013c0.218,-0.293 0.513,-0.524 0.885,-0.691c0.376,-0.167 0.802,-0.251 1.277,-0.251c0.67,0 1.195,0.147 1.577,0.44c0.384,0.294 0.657,0.681 0.819,1.163zM214.889,25.727l-2.06,-6.764h1.092l1.462,5.178h0.07l1.444,-5.178h1.11l1.427,5.161h0.07l1.462,-5.161h1.092l-2.061,6.764h-1.021l-1.48,-5.196h-0.105l-1.48,5.196zM223.432,25.727v-6.764h1.039v6.764zM223.96,17.836c-0.202,0 -0.377,-0.069 -0.524,-0.207c-0.143,-0.138 -0.215,-0.304 -0.215,-0.498c0,-0.194 0.072,-0.36 0.215,-0.497c0.147,-0.138 0.322,-0.207 0.524,-0.207c0.203,0 0.376,0.069 0.52,0.207c0.147,0.137 0.22,0.303 0.22,0.497c0,0.194 -0.073,0.36 -0.22,0.498c-0.144,0.138 -0.317,0.207 -0.52,0.207zM229.316,18.963v0.881h-3.505v-0.881zM226.833,17.342h1.039v6.447c0,0.294 0.042,0.514 0.127,0.661c0.088,0.143 0.2,0.24 0.335,0.29c0.138,0.047 0.283,0.071 0.436,0.071c0.115,0 0.208,-0.006 0.282,-0.018c0.073,-0.015 0.132,-0.026 0.176,-0.035l0.211,0.933c-0.07,0.027 -0.168,0.053 -0.295,0.08c-0.126,0.029 -0.286,0.044 -0.48,0.044c-0.293,0 -0.581,-0.063 -0.863,-0.19c-0.279,-0.126 -0.511,-0.318 -0.695,-0.577c-0.182,-0.258 -0.273,-0.584 -0.273,-0.977zM232.064,21.658v4.069h-1.039v-9.019h1.039v3.312h0.088c0.158,-0.35 0.396,-0.627 0.713,-0.832c0.32,-0.209 0.746,-0.313 1.277,-0.313c0.461,0 0.865,0.092 1.211,0.277c0.347,0.182 0.615,0.463 0.806,0.841c0.194,0.376 0.291,0.855 0.291,1.436v4.298h-1.04v-4.228c0,-0.537 -0.139,-0.952 -0.418,-1.246c-0.276,-0.296 -0.659,-0.445 -1.149,-0.445c-0.341,0 -0.646,0.072 -0.916,0.216c-0.267,0.144 -0.479,0.354 -0.634,0.63c-0.153,0.276 -0.229,0.61 -0.229,1.004zM241.979,25.727v-9.019h5.408v0.969h-4.316v3.047h3.91v0.969h-3.91v4.034zM249.043,25.727v-6.764h1.004v1.022h0.071c0.123,-0.335 0.346,-0.607 0.669,-0.815c0.323,-0.209 0.687,-0.313 1.092,-0.313c0.076,0 0.172,0.002 0.286,0.005c0.115,0.003 0.201,0.007 0.26,0.013v1.057c-0.035,-0.009 -0.116,-0.022 -0.242,-0.04c-0.123,-0.021 -0.254,-0.031 -0.392,-0.031c-0.329,0 -0.622,0.069 -0.881,0.207c-0.255,0.135 -0.458,0.323 -0.607,0.564c-0.147,0.238 -0.22,0.509 -0.22,0.814v4.281zM256.287,25.867c-0.652,0 -1.214,-0.143 -1.687,-0.431c-0.469,-0.291 -0.832,-0.696 -1.087,-1.215c-0.253,-0.523 -0.379,-1.131 -0.379,-1.823c0,-0.693 0.126,-1.304 0.379,-1.832c0.255,-0.532 0.61,-0.945 1.065,-1.242c0.458,-0.299 0.993,-0.449 1.603,-0.449c0.353,0 0.7,0.059 1.044,0.176c0.343,0.117 0.656,0.308 0.938,0.572c0.282,0.262 0.506,0.608 0.674,1.04c0.167,0.431 0.25,0.963 0.25,1.594v0.44h-5.213v-0.898h4.157c0,-0.382 -0.077,-0.722 -0.229,-1.022c-0.15,-0.299 -0.364,-0.536 -0.643,-0.709c-0.276,-0.173 -0.602,-0.26 -0.978,-0.26c-0.414,0 -0.772,0.103 -1.074,0.309c-0.3,0.202 -0.53,0.466 -0.692,0.792c-0.161,0.326 -0.242,0.675 -0.242,1.048v0.599c0,0.511 0.088,0.944 0.264,1.299c0.18,0.352 0.428,0.621 0.745,0.806c0.317,0.182 0.685,0.273 1.105,0.273c0.273,0 0.52,-0.038 0.74,-0.115c0.223,-0.079 0.415,-0.196 0.577,-0.352c0.161,-0.158 0.286,-0.355 0.374,-0.59l1.004,0.282c-0.106,0.34 -0.283,0.64 -0.533,0.898c-0.25,0.256 -0.558,0.455 -0.925,0.599c-0.367,0.141 -0.779,0.211 -1.237,0.211zM265.459,20.478l-0.933,0.264c-0.059,-0.156 -0.146,-0.307 -0.26,-0.454c-0.112,-0.149 -0.264,-0.273 -0.458,-0.37c-0.194,-0.096 -0.442,-0.145 -0.744,-0.145c-0.414,0 -0.759,0.096 -1.035,0.286c-0.273,0.188 -0.41,0.428 -0.41,0.718c0,0.258 0.094,0.462 0.282,0.612c0.188,0.15 0.482,0.275 0.881,0.374l1.004,0.247c0.605,0.147 1.055,0.371 1.352,0.674c0.296,0.299 0.445,0.685 0.445,1.158c0,0.387 -0.112,0.734 -0.335,1.039c-0.22,0.305 -0.529,0.546 -0.925,0.722c-0.396,0.176 -0.857,0.264 -1.383,0.264c-0.689,0 -1.26,-0.149 -1.712,-0.449c-0.453,-0.299 -0.739,-0.737 -0.859,-1.312l0.986,-0.246c0.094,0.364 0.272,0.637 0.533,0.819c0.264,0.182 0.609,0.273 1.035,0.273c0.484,0 0.869,-0.103 1.154,-0.309c0.287,-0.208 0.431,-0.458 0.431,-0.748c0,-0.235 -0.082,-0.432 -0.247,-0.59c-0.164,-0.162 -0.416,-0.282 -0.757,-0.361l-1.127,-0.265c-0.62,-0.146 -1.075,-0.374 -1.365,-0.682c-0.288,-0.311 -0.432,-0.7 -0.432,-1.167c0,-0.382 0.107,-0.719 0.322,-1.013c0.217,-0.293 0.512,-0.524 0.885,-0.691c0.376,-0.167 0.801,-0.251 1.277,-0.251c0.669,0 1.195,0.147 1.576,0.44c0.385,0.294 0.658,0.681 0.819,1.163zM270.088,18.963v0.881h-3.505v-0.881zM267.605,17.342h1.039v6.447c0,0.294 0.043,0.514 0.128,0.661c0.088,0.143 0.199,0.24 0.334,0.29c0.138,0.047 0.284,0.071 0.436,0.071c0.115,0 0.209,-0.006 0.282,-0.018c0.073,-0.015 0.132,-0.026 0.176,-0.035l0.212,0.933c-0.071,0.027 -0.169,0.053 -0.295,0.08c-0.127,0.029 -0.287,0.044 -0.48,0.044c-0.294,0 -0.582,-0.063 -0.863,-0.19c-0.279,-0.126 -0.511,-0.318 -0.696,-0.577c-0.182,-0.258 -0.273,-0.584 -0.273,-0.977zM274.188,26.595h12.4v-12.4h-12.4zM20.9082,40.727h-2.783v-9.019h2.9063c0.8748,0 1.6234,0.181 2.2457,0.542c0.6224,0.358 1.0994,0.873 1.4311,1.546c0.3318,0.669 0.4976,1.47 0.4976,2.404c0,0.939 -0.1673,1.748 -0.502,2.426c-0.3346,0.675 -0.8219,1.195 -1.4619,1.559c-0.64,0.361 -1.4179,0.542 -2.3338,0.542zM19.2173,39.758h1.6204c0.7457,0 1.3636,-0.144 1.8539,-0.432c0.4902,-0.287 0.8557,-0.697 1.0964,-1.228c0.2408,-0.532 0.3611,-1.164 0.3611,-1.898c0,-0.728 -0.1189,-1.355 -0.3567,-1.88c-0.2377,-0.529 -0.593,-0.934 -1.0656,-1.216c-0.4726,-0.284 -1.0612,-0.427 -1.7658,-0.427h-1.7437zM29.7326,40.867c-0.6517,0 -1.2138,-0.143 -1.6865,-0.431c-0.4697,-0.291 -0.8322,-0.696 -1.0876,-1.215c-0.2525,-0.523 -0.3787,-1.131 -0.3787,-1.823c0,-0.693 0.1262,-1.304 0.3787,-1.832c0.2554,-0.532 0.6106,-0.945 1.0656,-1.242c0.458,-0.299 0.9922,-0.449 1.6029,-0.449c0.3522,0 0.7001,0.059 1.0436,0.176c0.3434,0.117 0.6561,0.308 0.9379,0.572c0.2818,0.262 0.5064,0.608 0.6737,1.04c0.1673,0.431 0.251,0.963 0.251,1.594v0.44h-5.2136v-0.898h4.1568c0,-0.382 -0.0763,-0.722 -0.229,-1.022c-0.1497,-0.299 -0.364,-0.536 -0.6429,-0.709c-0.2759,-0.173 -0.6018,-0.26 -0.9775,-0.26c-0.414,0 -0.7721,0.103 -1.0745,0.309c-0.2994,0.202 -0.5299,0.466 -0.6913,0.792c-0.1615,0.326 -0.2422,0.675 -0.2422,1.048v0.599c0,0.511 0.0881,0.944 0.2642,1.299c0.1791,0.352 0.4271,0.621 0.7442,0.806c0.317,0.182 0.6854,0.273 1.1052,0.273c0.273,0 0.5196,-0.038 0.7398,-0.115c0.2231,-0.079 0.4154,-0.196 0.5769,-0.352c0.1614,-0.158 0.2862,-0.355 0.3742,-0.59l1.004,0.282c-0.1057,0.34 -0.2833,0.64 -0.5328,0.898c-0.2495,0.256 -0.5578,0.455 -0.9247,0.599c-0.367,0.141 -0.7794,0.211 -1.2374,0.211zM39.4388,33.963l-2.5011,6.764h-1.0568l-2.5011,-6.764h1.1272l1.8671,5.39h0.0704l1.8671,-5.39zM43.4041,40.867c-0.6517,0 -1.2139,-0.143 -1.6865,-0.431c-0.4697,-0.291 -0.8322,-0.696 -1.0876,-1.215c-0.2525,-0.523 -0.3787,-1.131 -0.3787,-1.823c0,-0.693 0.1262,-1.304 0.3787,-1.832c0.2554,-0.532 0.6106,-0.945 1.0656,-1.242c0.458,-0.299 0.9922,-0.449 1.6028,-0.449c0.3523,0 0.7002,0.059 1.0436,0.176c0.3435,0.117 0.6562,0.308 0.938,0.572c0.2818,0.262 0.5064,0.608 0.6737,1.04c0.1673,0.431 0.251,0.963 0.251,1.594v0.44h-5.2136v-0.898h4.1568c0,-0.382 -0.0764,-0.722 -0.229,-1.022c-0.1497,-0.299 -0.364,-0.536 -0.6429,-0.709c-0.276,-0.173 -0.6018,-0.26 -0.9776,-0.26c-0.4139,0 -0.772,0.103 -1.0744,0.309c-0.2994,0.202 -0.5299,0.466 -0.6913,0.792c-0.1615,0.326 -0.2422,0.675 -0.2422,1.048v0.599c0,0.511 0.0881,0.944 0.2642,1.299c0.1791,0.352 0.4271,0.621 0.7442,0.806c0.317,0.182 0.6854,0.273 1.1052,0.273c0.273,0 0.5196,-0.038 0.7398,-0.115c0.2231,-0.079 0.4154,-0.196 0.5768,-0.352c0.1615,-0.158 0.2863,-0.355 0.3743,-0.59l1.004,0.282c-0.1057,0.34 -0.2833,0.64 -0.5328,0.898c-0.2495,0.256 -0.5578,0.455 -0.9247,0.599c-0.367,0.141 -0.7794,0.211 -1.2374,0.211zM48.8247,31.708v9.019h-1.0392v-9.019zM53.4758,40.867c-0.6106,0 -1.1463,-0.145 -1.6072,-0.435c-0.458,-0.291 -0.8161,-0.698 -1.0745,-1.22c-0.2554,-0.523 -0.3831,-1.133 -0.3831,-1.832c0,-0.705 0.1277,-1.32 0.3831,-1.845c0.2584,-0.526 0.6165,-0.934 1.0745,-1.224c0.4609,-0.291 0.9966,-0.436 1.6072,-0.436c0.6106,0 1.1449,0.145 1.6029,0.436c0.4608,0.29 0.819,0.698 1.0744,1.224c0.2583,0.525 0.3875,1.14 0.3875,1.845c0,0.699 -0.1292,1.309 -0.3875,1.832c-0.2554,0.522 -0.6136,0.929 -1.0744,1.22c-0.458,0.29 -0.9923,0.435 -1.6029,0.435zM53.4758,39.934c0.4638,0 0.8455,-0.119 1.1449,-0.357c0.2994,-0.238 0.5211,-0.55 0.6649,-0.938c0.1439,-0.387 0.2158,-0.807 0.2158,-1.259c0,-0.452 -0.0719,-0.873 -0.2158,-1.264c-0.1438,-0.39 -0.3655,-0.706 -0.6649,-0.947c-0.2994,-0.24 -0.6811,-0.361 -1.1449,-0.361c-0.4638,0 -0.8454,0.121 -1.1449,0.361c-0.2994,0.241 -0.521,0.557 -0.6649,0.947c-0.1438,0.391 -0.2158,0.812 -0.2158,1.264c0,0.452 0.072,0.872 0.2158,1.259c0.1439,0.388 0.3655,0.7 0.6649,0.938c0.2995,0.238 0.6811,0.357 1.1449,0.357zM58.1269,43.263v-9.3h1.004v1.074h0.1233c0.0763,-0.117 0.182,-0.267 0.317,-0.449c0.138,-0.185 0.3347,-0.349 0.5901,-0.493c0.2583,-0.147 0.6077,-0.22 1.048,-0.22c0.5695,0 1.0715,0.142 1.506,0.427c0.4344,0.285 0.7735,0.688 1.0172,1.211c0.2436,0.522 0.3654,1.139 0.3654,1.849c0,0.717 -0.1218,1.338 -0.3654,1.863c-0.2437,0.523 -0.5813,0.928 -1.0128,1.215c-0.4316,0.285 -0.9291,0.427 -1.4928,0.427c-0.4345,0 -0.7823,-0.071 -1.0436,-0.215c-0.2613,-0.147 -0.4623,-0.313 -0.6033,-0.498c-0.1409,-0.188 -0.2495,-0.343 -0.3258,-0.467h-0.0881v3.576zM59.1485,37.345c0,0.511 0.0749,0.961 0.2246,1.352c0.1497,0.387 0.3684,0.691 0.6561,0.911c0.2877,0.217 0.64,0.326 1.0568,0.326c0.4345,0 0.797,-0.115 1.0877,-0.344c0.2935,-0.231 0.5137,-0.543 0.6605,-0.933c0.1497,-0.393 0.2245,-0.831 0.2245,-1.312c0,-0.476 -0.0734,-0.904 -0.2201,-1.286c-0.1439,-0.385 -0.3626,-0.688 -0.6561,-0.912c-0.2907,-0.226 -0.6562,-0.339 -1.0965,-0.339c-0.4227,0 -0.7779,0.108 -1.0656,0.322c-0.2877,0.211 -0.5049,0.508 -0.6517,0.889c-0.1468,0.379 -0.2202,0.821 -0.2202,1.326zM68.519,40.867c-0.652,0 -1.214,-0.143 -1.687,-0.431c-0.4692,-0.291 -0.8318,-0.696 -1.0872,-1.215c-0.2524,-0.523 -0.3787,-1.131 -0.3787,-1.823c0,-0.693 0.1263,-1.304 0.3787,-1.832c0.2554,-0.532 0.6106,-0.945 1.0652,-1.242c0.458,-0.299 0.993,-0.449 1.603,-0.449c0.353,0 0.7,0.059 1.044,0.176c0.343,0.117 0.656,0.308 0.938,0.572c0.282,0.262 0.506,0.608 0.674,1.04c0.167,0.431 0.251,0.963 0.251,1.594v0.44h-5.2141v-0.898h4.1571c0,-0.382 -0.077,-0.722 -0.229,-1.022c-0.15,-0.299 -0.364,-0.536 -0.643,-0.709c-0.276,-0.173 -0.602,-0.26 -0.978,-0.26c-0.414,0 -0.772,0.103 -1.074,0.309c-0.3,0.202 -0.53,0.466 -0.691,0.792c-0.1619,0.326 -0.2427,0.675 -0.2427,1.048v0.599c0,0.511 0.0881,0.944 0.2647,1.299c0.179,0.352 0.427,0.621 0.744,0.806c0.317,0.182 0.685,0.273 1.105,0.273c0.273,0 0.52,-0.038 0.74,-0.115c0.223,-0.079 0.415,-0.196 0.577,-0.352c0.161,-0.158 0.286,-0.355 0.374,-0.59l1.004,0.282c-0.106,0.34 -0.283,0.64 -0.533,0.898c-0.249,0.256 -0.558,0.455 -0.925,0.599c-0.367,0.141 -0.779,0.211 -1.237,0.211zM72.9,40.727v-6.764h1.004v1.022h0.071c0.123,-0.335 0.346,-0.607 0.669,-0.815c0.323,-0.209 0.687,-0.313 1.092,-0.313c0.076,0 0.172,0.002 0.286,0.005c0.115,0.003 0.201,0.007 0.26,0.013v1.057c-0.035,-0.009 -0.116,-0.022 -0.242,-0.04c-0.123,-0.021 -0.254,-0.031 -0.392,-0.031c-0.329,0 -0.622,0.069 -0.881,0.207c-0.255,0.135 -0.458,0.323 -0.607,0.564c-0.147,0.238 -0.22,0.509 -0.22,0.814v4.281zM84.013,33.963v0.881h-3.646v-0.881zM81.459,40.727v-7.698c0,-0.387 0.091,-0.71 0.273,-0.968c0.182,-0.259 0.419,-0.452 0.709,-0.582c0.291,-0.129 0.598,-0.193 0.921,-0.193c0.255,0 0.464,0.02 0.625,0.061c0.161,0.041 0.282,0.08 0.361,0.115l-0.299,0.898c-0.053,-0.018 -0.127,-0.04 -0.22,-0.066c-0.091,-0.026 -0.212,-0.04 -0.362,-0.04c-0.343,0 -0.591,0.087 -0.744,0.26c-0.149,0.173 -0.224,0.427 -0.224,0.762v7.451zM85.47,40.727v-6.764h1.004v1.022h0.07c0.124,-0.335 0.347,-0.607 0.67,-0.815c0.323,-0.209 0.687,-0.313 1.092,-0.313c0.076,0 0.171,0.002 0.286,0.005c0.114,0.003 0.201,0.007 0.26,0.013v1.057c-0.036,-0.009 -0.116,-0.022 -0.242,-0.04c-0.124,-0.021 -0.254,-0.031 -0.392,-0.031c-0.329,0 -0.623,0.069 -0.881,0.207c-0.255,0.135 -0.458,0.323 -0.608,0.564c-0.147,0.238 -0.22,0.509 -0.22,0.814v4.281zM90.084,40.727v-6.764h1.039v6.764zM90.612,32.836c-0.203,0 -0.377,-0.069 -0.524,-0.207c-0.144,-0.138 -0.216,-0.304 -0.216,-0.498c0,-0.194 0.072,-0.36 0.216,-0.497c0.147,-0.138 0.321,-0.207 0.524,-0.207c0.203,0 0.376,0.069 0.52,0.207c0.146,0.137 0.22,0.303 0.22,0.497c0,0.194 -0.074,0.36 -0.22,0.498c-0.144,0.138 -0.317,0.207 -0.52,0.207zM95.862,40.867c-0.652,0 -1.214,-0.143 -1.687,-0.431c-0.469,-0.291 -0.832,-0.696 -1.087,-1.215c-0.253,-0.523 -0.379,-1.131 -0.379,-1.823c0,-0.693 0.126,-1.304 0.379,-1.832c0.255,-0.532 0.61,-0.945 1.065,-1.242c0.458,-0.299 0.993,-0.449 1.603,-0.449c0.353,0 0.7,0.059 1.044,0.176c0.343,0.117 0.656,0.308 0.938,0.572c0.282,0.262 0.506,0.608 0.674,1.04c0.167,0.431 0.25,0.963 0.25,1.594v0.44h-5.213v-0.898h4.157c0,-0.382 -0.077,-0.722 -0.229,-1.022c-0.15,-0.299 -0.364,-0.536 -0.643,-0.709c-0.276,-0.173 -0.602,-0.26 -0.978,-0.26c-0.414,0 -0.772,0.103 -1.074,0.309c-0.3,0.202 -0.53,0.466 -0.692,0.792c-0.161,0.326 -0.242,0.675 -0.242,1.048v0.599c0,0.511 0.088,0.944 0.264,1.299c0.18,0.352 0.428,0.621 0.745,0.806c0.317,0.182 0.685,0.273 1.105,0.273c0.273,0 0.52,-0.038 0.74,-0.115c0.223,-0.079 0.415,-0.196 0.577,-0.352c0.161,-0.158 0.286,-0.355 0.374,-0.59l1.004,0.282c-0.106,0.34 -0.283,0.64 -0.533,0.898c-0.25,0.256 -0.558,0.455 -0.925,0.599c-0.367,0.141 -0.779,0.211 -1.237,0.211zM101.283,36.658v4.069h-1.04v-6.764h1.004v1.057h0.088c0.159,-0.344 0.4,-0.62 0.723,-0.828c0.322,-0.211 0.739,-0.317 1.25,-0.317c0.458,0 0.859,0.094 1.202,0.282c0.344,0.185 0.611,0.466 0.802,0.845c0.19,0.376 0.286,0.851 0.286,1.427v4.298h-1.039v-4.228c0,-0.531 -0.138,-0.945 -0.414,-1.241c-0.276,-0.3 -0.655,-0.45 -1.136,-0.45c-0.332,0 -0.629,0.072 -0.89,0.216c-0.258,0.144 -0.462,0.354 -0.612,0.63c-0.15,0.276 -0.224,0.61 -0.224,1.004zM110.051,40.867c-0.564,0 -1.061,-0.142 -1.493,-0.427c-0.431,-0.287 -0.769,-0.692 -1.013,-1.215c-0.243,-0.525 -0.365,-1.146 -0.365,-1.863c0,-0.71 0.122,-1.327 0.365,-1.849c0.244,-0.523 0.583,-0.926 1.017,-1.211c0.435,-0.285 0.937,-0.427 1.506,-0.427c0.441,0 0.789,0.073 1.044,0.22c0.258,0.144 0.455,0.308 0.59,0.493c0.138,0.182 0.245,0.332 0.322,0.449h0.088v-3.329h1.039v9.019h-1.004v-1.04h-0.123c-0.077,0.124 -0.185,0.279 -0.326,0.467c-0.141,0.185 -0.342,0.351 -0.604,0.498c-0.261,0.144 -0.609,0.215 -1.043,0.215zM110.192,39.934c0.417,0 0.769,-0.109 1.057,-0.326c0.287,-0.22 0.506,-0.524 0.656,-0.911c0.149,-0.391 0.224,-0.841 0.224,-1.352c0,-0.505 -0.073,-0.947 -0.22,-1.326c-0.147,-0.381 -0.364,-0.678 -0.652,-0.889c-0.287,-0.214 -0.643,-0.322 -1.065,-0.322c-0.441,0 -0.808,0.113 -1.101,0.339c-0.291,0.224 -0.509,0.527 -0.656,0.912c-0.144,0.382 -0.216,0.81 -0.216,1.286c0,0.481 0.073,0.919 0.22,1.312c0.15,0.39 0.37,0.702 0.661,0.933c0.293,0.229 0.657,0.344 1.092,0.344zM116.238,31.708v9.019h-1.04v-9.019zM118.81,43.263c-0.176,0 -0.333,-0.015 -0.471,-0.044c-0.138,-0.027 -0.233,-0.053 -0.286,-0.079l0.264,-0.916c0.253,0.064 0.476,0.088 0.669,0.07c0.194,-0.017 0.366,-0.104 0.516,-0.26c0.152,-0.152 0.292,-0.4 0.418,-0.744l0.194,-0.528l-2.501,-6.799h1.127l1.867,5.39h0.07l1.867,-5.39h1.128l-2.871,7.75c-0.13,0.349 -0.29,0.638 -0.48,0.867c-0.191,0.232 -0.413,0.404 -0.665,0.516c-0.25,0.111 -0.532,0.167 -0.846,0.167zM126.169,39.494l-0.07,0.475c-0.05,0.335 -0.126,0.693 -0.229,1.075c-0.1,0.381 -0.204,0.741 -0.313,1.078c-0.108,0.338 -0.198,0.607 -0.268,0.806h-0.793c0.038,-0.188 0.088,-0.436 0.15,-0.744c0.062,-0.308 0.123,-0.653 0.185,-1.035c0.064,-0.378 0.117,-0.766 0.158,-1.162l0.053,-0.493zM131.723,40.727v-9.019h1.092v4.016h4.809v-4.016h1.092v9.019h-1.092v-4.034h-4.809v4.034zM140.761,40.727v-6.764h1.039v6.764zM141.29,32.836c-0.203,0 -0.378,-0.069 -0.524,-0.207c-0.144,-0.138 -0.216,-0.304 -0.216,-0.498c0,-0.194 0.072,-0.36 0.216,-0.497c0.146,-0.138 0.321,-0.207 0.524,-0.207c0.202,0 0.375,0.069 0.519,0.207c0.147,0.137 0.22,0.303 0.22,0.497c0,0.194 -0.073,0.36 -0.22,0.498c-0.144,0.138 -0.317,0.207 -0.519,0.207zM146.434,43.404c-0.502,0 -0.934,-0.065 -1.295,-0.194c-0.361,-0.126 -0.662,-0.293 -0.902,-0.502c-0.238,-0.205 -0.427,-0.426 -0.568,-0.66l0.827,-0.582c0.094,0.124 0.213,0.265 0.357,0.423c0.144,0.162 0.341,0.301 0.59,0.418c0.253,0.121 0.583,0.181 0.991,0.181c0.546,0 0.997,-0.132 1.352,-0.396c0.355,-0.265 0.533,-0.679 0.533,-1.242v-1.374h-0.088c-0.077,0.123 -0.185,0.276 -0.326,0.458c-0.138,0.179 -0.338,0.339 -0.599,0.48c-0.258,0.138 -0.608,0.207 -1.048,0.207c-0.546,0 -1.036,-0.129 -1.471,-0.388c-0.431,-0.258 -0.773,-0.634 -1.026,-1.127c-0.249,-0.493 -0.374,-1.092 -0.374,-1.796c0,-0.693 0.122,-1.297 0.365,-1.81c0.244,-0.517 0.583,-0.916 1.017,-1.198c0.435,-0.285 0.937,-0.427 1.506,-0.427c0.441,0 0.79,0.073 1.048,0.22c0.262,0.144 0.461,0.308 0.599,0.493c0.141,0.182 0.25,0.332 0.326,0.449h0.106v-1.074h1.004v6.957c0,0.582 -0.132,1.054 -0.396,1.418c-0.262,0.367 -0.614,0.636 -1.057,0.806c-0.441,0.173 -0.931,0.26 -1.471,0.26zM146.399,39.687c0.417,0 0.769,-0.095 1.057,-0.286c0.287,-0.191 0.506,-0.465 0.656,-0.823c0.149,-0.358 0.224,-0.787 0.224,-1.286c0,-0.487 -0.073,-0.917 -0.22,-1.29c-0.147,-0.373 -0.364,-0.665 -0.652,-0.877c-0.287,-0.211 -0.643,-0.317 -1.065,-0.317c-0.441,0 -0.808,0.112 -1.101,0.335c-0.291,0.223 -0.509,0.523 -0.656,0.898c-0.144,0.376 -0.216,0.793 -0.216,1.251c0,0.47 0.073,0.885 0.22,1.246c0.15,0.358 0.37,0.64 0.661,0.846c0.293,0.202 0.657,0.303 1.092,0.303zM152.299,36.658v4.069h-1.039v-9.019h1.039v3.312h0.088c0.159,-0.35 0.397,-0.627 0.714,-0.832c0.32,-0.209 0.745,-0.313 1.277,-0.313c0.461,0 0.864,0.092 1.211,0.277c0.346,0.182 0.615,0.463 0.805,0.841c0.194,0.376 0.291,0.855 0.291,1.436v4.298h-1.039v-4.228c0,-0.537 -0.14,-0.952 -0.418,-1.246c-0.276,-0.296 -0.659,-0.445 -1.15,-0.445c-0.34,0 -0.646,0.072 -0.916,0.216c-0.267,0.144 -0.478,0.354 -0.634,0.63c-0.152,0.276 -0.229,0.61 -0.229,1.004zM159.625,31.708v9.019h-1.039v-9.019zM162.198,43.263c-0.176,0 -0.333,-0.015 -0.471,-0.044c-0.138,-0.027 -0.233,-0.053 -0.286,-0.079l0.264,-0.916c0.252,0.064 0.476,0.088 0.669,0.07c0.194,-0.017 0.366,-0.104 0.516,-0.26c0.152,-0.152 0.292,-0.4 0.418,-0.744l0.194,-0.528l-2.502,-6.799h1.128l1.867,5.39h0.07l1.867,-5.39h1.128l-2.871,7.75c-0.13,0.349 -0.29,0.638 -0.48,0.867c-0.191,0.232 -0.413,0.404 -0.665,0.516c-0.25,0.111 -0.532,0.167 -0.846,0.167zM174.666,40.867c-0.634,0 -1.18,-0.149 -1.638,-0.449c-0.458,-0.299 -0.81,-0.712 -1.056,-1.237c-0.247,-0.526 -0.37,-1.126 -0.37,-1.801c0,-0.687 0.126,-1.293 0.378,-1.819c0.256,-0.528 0.611,-0.94 1.066,-1.237c0.458,-0.299 0.992,-0.449 1.603,-0.449c0.475,0 0.904,0.088 1.286,0.264c0.381,0.176 0.694,0.423 0.938,0.74c0.243,0.317 0.394,0.687 0.453,1.109h-1.039c-0.079,-0.308 -0.256,-0.581 -0.529,-0.819c-0.27,-0.24 -0.634,-0.361 -1.092,-0.361c-0.405,0 -0.76,0.106 -1.065,0.317c-0.303,0.209 -0.539,0.504 -0.709,0.886c-0.167,0.378 -0.251,0.823 -0.251,1.334c0,0.522 0.082,0.977 0.246,1.365c0.168,0.387 0.403,0.688 0.705,0.903c0.305,0.214 0.663,0.321 1.074,0.321c0.271,0 0.516,-0.047 0.736,-0.141c0.22,-0.094 0.406,-0.229 0.559,-0.405c0.153,-0.176 0.261,-0.388 0.326,-0.634h1.039c-0.059,0.399 -0.204,0.759 -0.436,1.079c-0.229,0.317 -0.533,0.569 -0.911,0.757c-0.376,0.185 -0.814,0.277 -1.313,0.277zM183.108,37.961v-3.998h1.039v6.764h-1.039v-1.145h-0.071c-0.158,0.343 -0.405,0.635 -0.739,0.876c-0.335,0.238 -0.758,0.357 -1.269,0.357c-0.422,0 -0.798,-0.093 -1.127,-0.278c-0.329,-0.188 -0.587,-0.469 -0.775,-0.845c-0.188,-0.379 -0.282,-0.856 -0.282,-1.431v-4.298h1.039v4.227c0,0.493 0.138,0.887 0.414,1.18c0.279,0.294 0.634,0.441 1.066,0.441c0.258,0 0.521,-0.066 0.788,-0.198c0.27,-0.133 0.496,-0.335 0.678,-0.608c0.185,-0.273 0.278,-0.621 0.278,-1.044zM190.841,35.478l-0.933,0.264c-0.059,-0.156 -0.146,-0.307 -0.26,-0.454c-0.112,-0.149 -0.264,-0.273 -0.458,-0.37c-0.194,-0.096 -0.442,-0.145 -0.744,-0.145c-0.414,0 -0.759,0.096 -1.035,0.286c-0.273,0.188 -0.41,0.428 -0.41,0.718c0,0.258 0.094,0.462 0.282,0.612c0.188,0.15 0.482,0.275 0.881,0.374l1.004,0.247c0.605,0.147 1.055,0.371 1.352,0.674c0.296,0.299 0.445,0.685 0.445,1.158c0,0.387 -0.112,0.734 -0.335,1.039c-0.22,0.305 -0.529,0.546 -0.925,0.722c-0.396,0.176 -0.857,0.264 -1.382,0.264c-0.69,0 -1.261,-0.149 -1.713,-0.449c-0.453,-0.299 -0.739,-0.737 -0.859,-1.312l0.986,-0.246c0.094,0.364 0.272,0.637 0.533,0.819c0.264,0.182 0.609,0.273 1.035,0.273c0.484,0 0.869,-0.103 1.154,-0.309c0.287,-0.208 0.431,-0.458 0.431,-0.748c0,-0.235 -0.082,-0.432 -0.246,-0.59c-0.165,-0.162 -0.417,-0.282 -0.758,-0.361l-1.127,-0.265c-0.62,-0.146 -1.075,-0.374 -1.365,-0.682c-0.288,-0.311 -0.432,-0.7 -0.432,-1.167c0,-0.382 0.107,-0.719 0.322,-1.013c0.217,-0.293 0.512,-0.524 0.885,-0.691c0.376,-0.167 0.801,-0.251 1.277,-0.251c0.669,0 1.195,0.147 1.576,0.44c0.385,0.294 0.658,0.681 0.819,1.163zM195.47,33.963v0.881h-3.505v-0.881zM192.987,32.342h1.039v6.447c0,0.294 0.043,0.514 0.128,0.661c0.088,0.143 0.199,0.24 0.334,0.29c0.138,0.047 0.284,0.071 0.436,0.071c0.115,0 0.209,-0.006 0.282,-0.018c0.074,-0.015 0.132,-0.026 0.176,-0.035l0.212,0.933c-0.071,0.027 -0.169,0.053 -0.295,0.08c-0.127,0.029 -0.287,0.044 -0.48,0.044c-0.294,0 -0.582,-0.063 -0.863,-0.19c-0.279,-0.126 -0.511,-0.318 -0.696,-0.577c-0.182,-0.258 -0.273,-0.584 -0.273,-0.977zM199.709,40.867c-0.611,0 -1.147,-0.145 -1.608,-0.435c-0.458,-0.291 -0.816,-0.698 -1.074,-1.22c-0.255,-0.523 -0.383,-1.133 -0.383,-1.832c0,-0.705 0.128,-1.32 0.383,-1.845c0.258,-0.526 0.616,-0.934 1.074,-1.224c0.461,-0.291 0.997,-0.436 1.608,-0.436c0.61,0 1.145,0.145 1.602,0.436c0.461,0.29 0.82,0.698 1.075,1.224c0.258,0.525 0.387,1.14 0.387,1.845c0,0.699 -0.129,1.309 -0.387,1.832c-0.255,0.522 -0.614,0.929 -1.075,1.22c-0.457,0.29 -0.992,0.435 -1.602,0.435zM199.709,39.934c0.463,0 0.845,-0.119 1.145,-0.357c0.299,-0.238 0.521,-0.55 0.664,-0.938c0.144,-0.387 0.216,-0.807 0.216,-1.259c0,-0.452 -0.072,-0.873 -0.216,-1.264c-0.143,-0.39 -0.365,-0.706 -0.664,-0.947c-0.3,-0.24 -0.682,-0.361 -1.145,-0.361c-0.464,0 -0.846,0.121 -1.145,0.361c-0.3,0.241 -0.521,0.557 -0.665,0.947c-0.144,0.391 -0.216,0.812 -0.216,1.264c0,0.452 0.072,0.872 0.216,1.259c0.144,0.388 0.365,0.7 0.665,0.938c0.299,0.238 0.681,0.357 1.145,0.357zM204.36,40.727v-6.764h1.004v1.057h0.088c0.141,-0.361 0.368,-0.642 0.682,-0.841c0.314,-0.203 0.692,-0.304 1.132,-0.304c0.446,0 0.818,0.101 1.114,0.304c0.299,0.199 0.533,0.48 0.7,0.841h0.071c0.173,-0.35 0.433,-0.627 0.779,-0.832c0.346,-0.209 0.762,-0.313 1.246,-0.313c0.605,0 1.1,0.189 1.484,0.568c0.385,0.376 0.577,0.961 0.577,1.757v4.527h-1.039v-4.527c0,-0.499 -0.137,-0.856 -0.41,-1.07c-0.273,-0.214 -0.594,-0.322 -0.964,-0.322c-0.476,0 -0.844,0.144 -1.105,0.432c-0.262,0.285 -0.392,0.646 -0.392,1.083v4.404h-1.057v-4.633c0,-0.384 -0.125,-0.694 -0.374,-0.929c-0.25,-0.238 -0.571,-0.357 -0.965,-0.357c-0.27,0 -0.522,0.072 -0.757,0.216c-0.232,0.144 -0.42,0.344 -0.564,0.599c-0.141,0.252 -0.211,0.545 -0.211,0.876v4.228zM215.137,40.727v-6.764h1.039v6.764zM215.665,32.836c-0.202,0 -0.377,-0.069 -0.524,-0.207c-0.143,-0.138 -0.215,-0.304 -0.215,-0.498c0,-0.194 0.072,-0.36 0.215,-0.497c0.147,-0.138 0.322,-0.207 0.524,-0.207c0.203,0 0.376,0.069 0.52,0.207c0.147,0.137 0.22,0.303 0.22,0.497c0,0.194 -0.073,0.36 -0.22,0.498c-0.144,0.138 -0.317,0.207 -0.52,0.207zM217.886,40.727v-0.793l3.84,-4.932v-0.07h-3.717v-0.969h5.055v0.828l-3.734,4.896v0.071h3.858v0.969zM226.779,40.885c-0.429,0 -0.818,-0.081 -1.167,-0.242c-0.35,-0.164 -0.627,-0.401 -0.833,-0.709c-0.205,-0.311 -0.308,-0.687 -0.308,-1.127c0,-0.388 0.077,-0.702 0.229,-0.943c0.153,-0.243 0.357,-0.434 0.612,-0.572c0.256,-0.138 0.537,-0.241 0.846,-0.308c0.311,-0.071 0.624,-0.127 0.938,-0.168c0.411,-0.053 0.744,-0.092 0.999,-0.119c0.259,-0.029 0.446,-0.077 0.564,-0.145c0.12,-0.067 0.18,-0.185 0.18,-0.352v-0.035c0,-0.435 -0.119,-0.772 -0.356,-1.013c-0.235,-0.241 -0.592,-0.361 -1.07,-0.361c-0.496,0 -0.885,0.108 -1.167,0.326c-0.282,0.217 -0.48,0.449 -0.595,0.695l-0.986,-0.352c0.176,-0.411 0.411,-0.731 0.704,-0.96c0.297,-0.232 0.62,-0.393 0.969,-0.484c0.353,-0.094 0.699,-0.141 1.039,-0.141c0.218,0 0.467,0.026 0.749,0.079c0.285,0.05 0.559,0.154 0.823,0.313c0.268,0.158 0.489,0.398 0.665,0.718c0.177,0.319 0.265,0.748 0.265,1.285v4.457h-1.04v-0.916h-0.052c-0.071,0.146 -0.188,0.303 -0.353,0.471c-0.164,0.167 -0.383,0.31 -0.656,0.427c-0.273,0.117 -0.606,0.176 -0.999,0.176zM226.937,39.952c0.411,0 0.757,-0.081 1.039,-0.243c0.285,-0.161 0.499,-0.37 0.643,-0.625c0.147,-0.255 0.22,-0.524 0.22,-0.806v-0.951c-0.044,0.053 -0.141,0.101 -0.29,0.145c-0.147,0.042 -0.317,0.078 -0.511,0.111c-0.191,0.029 -0.377,0.055 -0.559,0.079c-0.179,0.02 -0.325,0.038 -0.436,0.053c-0.27,0.035 -0.523,0.092 -0.758,0.171c-0.232,0.077 -0.419,0.193 -0.563,0.348c-0.141,0.153 -0.212,0.361 -0.212,0.626c0,0.361 0.134,0.634 0.401,0.819c0.27,0.182 0.612,0.273 1.026,0.273zM231.916,40.727v-9.019h1.039v3.329h0.089c0.076,-0.117 0.182,-0.267 0.317,-0.449c0.138,-0.185 0.334,-0.349 0.59,-0.493c0.258,-0.147 0.607,-0.22 1.048,-0.22c0.569,0 1.071,0.142 1.506,0.427c0.434,0.285 0.773,0.688 1.017,1.211c0.243,0.522 0.365,1.139 0.365,1.849c0,0.717 -0.122,1.338 -0.365,1.863c-0.244,0.523 -0.581,0.928 -1.013,1.215c-0.432,0.285 -0.929,0.427 -1.493,0.427c-0.434,0 -0.782,-0.071 -1.043,-0.215c-0.262,-0.147 -0.463,-0.313 -0.604,-0.498c-0.141,-0.188 -0.249,-0.343 -0.325,-0.467h-0.124v1.04zM232.938,37.345c0,0.511 0.075,0.961 0.224,1.352c0.15,0.387 0.369,0.691 0.657,0.911c0.287,0.217 0.639,0.326 1.056,0.326c0.435,0 0.797,-0.115 1.088,-0.344c0.294,-0.231 0.514,-0.543 0.661,-0.933c0.149,-0.393 0.224,-0.831 0.224,-1.312c0,-0.476 -0.073,-0.904 -0.22,-1.286c-0.144,-0.385 -0.363,-0.688 -0.656,-0.912c-0.291,-0.226 -0.656,-0.339 -1.097,-0.339c-0.422,0 -0.778,0.108 -1.065,0.322c-0.288,0.211 -0.505,0.508 -0.652,0.889c-0.147,0.379 -0.22,0.821 -0.22,1.326zM240.516,31.708v9.019h-1.039v-9.019zM245.255,40.867c-0.651,0 -1.214,-0.143 -1.686,-0.431c-0.47,-0.291 -0.832,-0.696 -1.088,-1.215c-0.252,-0.523 -0.379,-1.131 -0.379,-1.823c0,-0.693 0.127,-1.304 0.379,-1.832c0.256,-0.532 0.611,-0.945 1.066,-1.242c0.458,-0.299 0.992,-0.449 1.603,-0.449c0.352,0 0.7,0.059 1.043,0.176c0.344,0.117 0.656,0.308 0.938,0.572c0.282,0.262 0.507,0.608 0.674,1.04c0.167,0.431 0.251,0.963 0.251,1.594v0.44h-5.214v-0.898h4.157c0,-0.382 -0.076,-0.722 -0.229,-1.022c-0.15,-0.299 -0.364,-0.536 -0.643,-0.709c-0.276,-0.173 -0.602,-0.26 -0.977,-0.26c-0.414,0 -0.772,0.103 -1.075,0.309c-0.299,0.202 -0.53,0.466 -0.691,0.792c-0.162,0.326 -0.242,0.675 -0.242,1.048v0.599c0,0.511 0.088,0.944 0.264,1.299c0.179,0.352 0.427,0.621 0.744,0.806c0.317,0.182 0.685,0.273 1.105,0.273c0.273,0 0.52,-0.038 0.74,-0.115c0.223,-0.079 0.415,-0.196 0.577,-0.352c0.161,-0.158 0.286,-0.355 0.374,-0.59l1.004,0.282c-0.106,0.34 -0.283,0.64 -0.533,0.898c-0.249,0.256 -0.557,0.455 -0.924,0.599c-0.367,0.141 -0.78,0.211 -1.238,0.211zM255.678,40.85c-0.593,0 -1.104,-0.109 -1.532,-0.326c-0.429,-0.217 -0.759,-0.515 -0.991,-0.894c-0.232,-0.379 -0.348,-0.812 -0.348,-1.299c0,-0.376 0.079,-0.709 0.238,-0.999c0.161,-0.294 0.383,-0.566 0.665,-0.815c0.285,-0.253 0.612,-0.505 0.982,-0.757l1.303,-0.969c0.256,-0.168 0.46,-0.347 0.612,-0.537c0.156,-0.191 0.234,-0.441 0.234,-0.749c0,-0.229 -0.102,-0.451 -0.304,-0.665c-0.2,-0.214 -0.463,-0.321 -0.788,-0.321c-0.229,0 -0.432,0.058 -0.608,0.176c-0.173,0.114 -0.31,0.261 -0.41,0.44c-0.096,0.176 -0.145,0.358 -0.145,0.546c0,0.211 0.057,0.426 0.172,0.643c0.117,0.214 0.266,0.434 0.445,0.661c0.182,0.223 0.369,0.452 0.563,0.686l4.139,5.056h-1.25l-3.417,-4.122c-0.317,-0.382 -0.605,-0.728 -0.863,-1.039c-0.259,-0.311 -0.464,-0.618 -0.617,-0.921c-0.152,-0.302 -0.229,-0.629 -0.229,-0.982c0,-0.405 0.09,-0.76 0.269,-1.065c0.182,-0.308 0.436,-0.548 0.762,-0.718c0.328,-0.173 0.713,-0.26 1.153,-0.26c0.452,0 0.841,0.088 1.167,0.265c0.326,0.173 0.577,0.403 0.753,0.691c0.176,0.285 0.264,0.594 0.264,0.929c0,0.432 -0.107,0.806 -0.321,1.123c-0.214,0.317 -0.506,0.612 -0.876,0.885l-1.797,1.339c-0.405,0.299 -0.679,0.59 -0.823,0.871c-0.144,0.282 -0.216,0.485 -0.216,0.608c0,0.282 0.073,0.545 0.22,0.788c0.147,0.244 0.354,0.441 0.621,0.59c0.267,0.15 0.58,0.225 0.938,0.225c0.34,0 0.672,-0.072 0.995,-0.216c0.323,-0.147 0.615,-0.358 0.876,-0.634c0.265,-0.276 0.473,-0.608 0.626,-0.995c0.155,-0.388 0.233,-0.824 0.233,-1.308h1.004c0,0.599 -0.069,1.088 -0.207,1.466c-0.138,0.379 -0.293,0.676 -0.467,0.89c-0.173,0.214 -0.312,0.374 -0.418,0.48c-0.035,0.044 -0.068,0.088 -0.097,0.132c-0.029,0.044 -0.062,0.088 -0.097,0.132c-0.29,0.326 -0.657,0.57 -1.101,0.731c-0.443,0.159 -0.88,0.238 -1.312,0.238zM25.3821,49.527h-1.0921c-0.0646,-0.315 -0.1776,-0.59 -0.339,-0.828c-0.1586,-0.238 -0.3523,-0.438 -0.5813,-0.599c-0.226,-0.165 -0.477,-0.288 -0.753,-0.37c-0.2759,-0.082 -0.5636,-0.123 -0.863,-0.123c-0.5461,0 -1.0407,0.138 -1.484,0.414c-0.4403,0.276 -0.7911,0.682 -1.0524,1.219c-0.2583,0.538 -0.3875,1.197 -0.3875,1.977c0,0.781 0.1292,1.44 0.3875,1.978c0.2613,0.537 0.6121,0.943 1.0524,1.219c0.4433,0.276 0.9379,0.414 1.484,0.414c0.2994,0 0.5871,-0.041 0.863,-0.123c0.276,-0.082 0.527,-0.204 0.753,-0.366c0.229,-0.164 0.4227,-0.365 0.5813,-0.603c0.1614,-0.24 0.2744,-0.516 0.339,-0.828h1.0921c-0.0822,0.461 -0.2319,0.874 -0.4492,1.238c-0.2172,0.364 -0.4873,0.673 -0.8102,0.929c-0.3229,0.252 -0.6855,0.445 -1.0877,0.577c-0.3992,0.132 -0.8263,0.198 -1.2813,0.198c-0.7692,0 -1.4532,-0.188 -2.052,-0.564c-0.5989,-0.376 -1.0701,-0.91 -1.4135,-1.603c-0.3435,-0.692 -0.5152,-1.514 -0.5152,-2.466c0,-0.951 0.1717,-1.773 0.5152,-2.465c0.3434,-0.693 0.8146,-1.228 1.4135,-1.603c0.5988,-0.376 1.2828,-0.564 2.052,-0.564c0.455,0 0.8821,0.066 1.2813,0.198c0.4022,0.132 0.7648,0.326 1.0877,0.581c0.3229,0.253 0.593,0.561 0.8102,0.925c0.2173,0.361 0.367,0.774 0.4492,1.238zM28.9962,55.885c-0.4286,0 -0.8176,-0.081 -1.1669,-0.242c-0.3494,-0.164 -0.6268,-0.401 -0.8323,-0.709c-0.2055,-0.311 -0.3082,-0.687 -0.3082,-1.127c0,-0.388 0.0763,-0.702 0.229,-0.943c0.1526,-0.243 0.3566,-0.434 0.612,-0.572c0.2554,-0.138 0.5372,-0.241 0.8455,-0.308c0.3112,-0.071 0.6238,-0.127 0.9379,-0.168c0.411,-0.053 0.7442,-0.092 0.9996,-0.119c0.2583,-0.029 0.4462,-0.077 0.5636,-0.145c0.1204,-0.067 0.1806,-0.185 0.1806,-0.352v-0.035c0,-0.435 -0.1189,-0.772 -0.3567,-1.013c-0.2349,-0.241 -0.5915,-0.361 -1.07,-0.361c-0.4962,0 -0.8851,0.108 -1.1669,0.326c-0.2819,0.217 -0.48,0.449 -0.5945,0.695l-0.9864,-0.352c0.1762,-0.411 0.411,-0.731 0.7046,-0.96c0.2965,-0.232 0.6194,-0.393 0.9687,-0.484c0.3523,-0.094 0.6987,-0.141 1.0392,-0.141c0.2173,0 0.4668,0.026 0.7486,0.079c0.2848,0.05 0.5592,0.154 0.8234,0.313c0.2672,0.158 0.4888,0.398 0.665,0.718c0.1761,0.319 0.2642,0.748 0.2642,1.285v4.457h-1.0392v-0.916h-0.0529c-0.0704,0.146 -0.1879,0.303 -0.3523,0.471c-0.1643,0.167 -0.3831,0.31 -0.6561,0.427c-0.273,0.117 -0.6062,0.176 -0.9995,0.176zM29.1547,54.952c0.411,0 0.7574,-0.081 1.0392,-0.243c0.2847,-0.161 0.499,-0.37 0.6429,-0.625c0.1468,-0.255 0.2202,-0.524 0.2202,-0.806v-0.951c-0.0441,0.053 -0.1409,0.101 -0.2907,0.145c-0.1467,0.042 -0.317,0.078 -0.5108,0.111c-0.1908,0.029 -0.3772,0.055 -0.5592,0.079c-0.1791,0.02 -0.3244,0.038 -0.4359,0.053c-0.2701,0.035 -0.5226,0.092 -0.7574,0.171c-0.2319,0.077 -0.4198,0.193 -0.5637,0.348c-0.1409,0.153 -0.2113,0.361 -0.2113,0.626c0,0.361 0.1336,0.634 0.4007,0.819c0.2701,0.182 0.6121,0.273 1.026,0.273zM33.9929,55.727v-6.764h1.004v1.022h0.0705c0.1233,-0.335 0.3464,-0.607 0.6693,-0.815c0.3229,-0.209 0.6869,-0.313 1.092,-0.313c0.0764,0 0.1718,0.002 0.2863,0.005c0.1144,0.003 0.201,0.007 0.2598,0.013v1.057c-0.0353,-0.009 -0.116,-0.022 -0.2422,-0.04c-0.1233,-0.021 -0.254,-0.031 -0.3919,-0.031c-0.3288,0 -0.6224,0.069 -0.8807,0.207c-0.2554,0.135 -0.458,0.323 -0.6077,0.564c-0.1468,0.238 -0.2202,0.509 -0.2202,0.814v4.281zM41.2365,55.867c-0.6517,0 -1.2138,-0.143 -1.6865,-0.431c-0.4697,-0.291 -0.8322,-0.696 -1.0876,-1.215c-0.2525,-0.523 -0.3787,-1.131 -0.3787,-1.823c0,-0.693 0.1262,-1.304 0.3787,-1.832c0.2554,-0.532 0.6106,-0.945 1.0656,-1.242c0.458,-0.299 0.9923,-0.449 1.6029,-0.449c0.3522,0 0.7001,0.059 1.0436,0.176c0.3434,0.117 0.6561,0.308 0.9379,0.572c0.2818,0.262 0.5064,0.608 0.6737,1.04c0.1673,0.431 0.251,0.963 0.251,1.594v0.44h-5.2136v-0.898h4.1568c0,-0.382 -0.0763,-0.722 -0.229,-1.022c-0.1497,-0.299 -0.364,-0.536 -0.6429,-0.709c-0.2759,-0.173 -0.6018,-0.26 -0.9775,-0.26c-0.414,0 -0.7721,0.103 -1.0745,0.309c-0.2994,0.202 -0.5298,0.466 -0.6913,0.792c-0.1615,0.326 -0.2422,0.675 -0.2422,1.048v0.599c0,0.511 0.0881,0.944 0.2642,1.299c0.1791,0.352 0.4271,0.621 0.7442,0.806c0.317,0.182 0.6855,0.273 1.1052,0.273c0.2731,0 0.5196,-0.038 0.7398,-0.115c0.2231,-0.079 0.4154,-0.196 0.5769,-0.352c0.1614,-0.158 0.2862,-0.355 0.3743,-0.59l1.0039,0.282c-0.1057,0.34 -0.2833,0.64 -0.5328,0.898c-0.2495,0.256 -0.5577,0.455 -0.9247,0.599c-0.367,0.141 -0.7794,0.211 -1.2374,0.211zM48.6299,48.963v0.881h-3.6461v-0.881zM46.0759,55.727v-7.698c0,-0.387 0.091,-0.71 0.273,-0.968c0.182,-0.259 0.4183,-0.452 0.7089,-0.582c0.2907,-0.129 0.5974,-0.193 0.9204,-0.193c0.2554,0 0.4638,0.02 0.6252,0.061c0.1615,0.041 0.2819,0.08 0.3611,0.115l-0.2994,0.898c-0.0528,-0.018 -0.1262,-0.04 -0.2202,-0.066c-0.091,-0.026 -0.2113,-0.04 -0.3611,-0.04c-0.3434,0 -0.5915,0.087 -0.7441,0.26c-0.1497,0.173 -0.2246,0.427 -0.2246,0.762v7.451zM54.3488,52.961v-3.998h1.0392v6.764h-1.0392v-1.145h-0.0705c-0.1585,0.343 -0.4051,0.635 -0.7397,0.876c-0.3347,0.238 -0.7574,0.357 -1.2682,0.357c-0.4227,0 -0.7985,-0.093 -1.1273,-0.278c-0.3288,-0.188 -0.5871,-0.469 -0.775,-0.845c-0.1879,-0.379 -0.2818,-0.856 -0.2818,-1.431v-4.298h1.0392v4.227c0,0.493 0.138,0.887 0.4139,1.18c0.2789,0.294 0.6341,0.441 1.0656,0.441c0.2584,0 0.5211,-0.066 0.7883,-0.198c0.27,-0.133 0.4961,-0.335 0.6781,-0.608c0.1849,-0.273 0.2774,-0.621 0.2774,-1.044zM58.3306,46.708v9.019h-1.0392v-9.019zM61.2732,46.708v9.019h-1.0392v-9.019zM63.8458,58.263c-0.1761,0 -0.3331,-0.015 -0.4711,-0.044c-0.138,-0.027 -0.2334,-0.053 -0.2862,-0.079l0.2642,-0.916c0.2524,0.064 0.4755,0.088 0.6693,0.07c0.1937,-0.017 0.3655,-0.104 0.5152,-0.26c0.1526,-0.152 0.2921,-0.4 0.4183,-0.744l0.1938,-0.528l-2.5012,-6.799h1.1273l1.867,5.39h0.0705l1.8671,-5.39h1.127l-2.8708,7.75c-0.1292,0.349 -0.2892,0.638 -0.48,0.867c-0.1908,0.232 -0.4124,0.404 -0.6649,0.516c-0.2495,0.111 -0.5313,0.167 -0.8455,0.167zM76.314,55.867c-0.634,0 -1.18,-0.149 -1.638,-0.449c-0.458,-0.299 -0.81,-0.712 -1.057,-1.237c-0.246,-0.526 -0.37,-1.126 -0.37,-1.801c0,-0.687 0.127,-1.293 0.379,-1.819c0.255,-0.528 0.611,-0.94 1.066,-1.237c0.458,-0.299 0.992,-0.449 1.602,-0.449c0.476,0 0.905,0.088 1.286,0.264c0.382,0.176 0.695,0.423 0.938,0.74c0.244,0.317 0.395,0.687 0.454,1.109h-1.039c-0.08,-0.308 -0.256,-0.581 -0.529,-0.819c-0.27,-0.24 -0.634,-0.361 -1.092,-0.361c-0.405,0 -0.76,0.106 -1.066,0.317c-0.302,0.209 -0.538,0.504 -0.708,0.886c-0.168,0.378 -0.251,0.823 -0.251,1.334c0,0.522 0.082,0.977 0.246,1.365c0.167,0.387 0.402,0.688 0.705,0.903c0.305,0.214 0.663,0.321 1.074,0.321c0.27,0 0.515,-0.047 0.735,-0.141c0.221,-0.094 0.407,-0.229 0.56,-0.405c0.152,-0.176 0.261,-0.388 0.326,-0.634h1.039c-0.059,0.399 -0.204,0.759 -0.436,1.079c-0.229,0.317 -0.533,0.569 -0.912,0.757c-0.375,0.185 -0.813,0.277 -1.312,0.277zM80.493,55.727v-6.764h1.004v1.022h0.07c0.124,-0.335 0.347,-0.607 0.67,-0.815c0.323,-0.209 0.687,-0.313 1.092,-0.313c0.076,0 0.171,0.002 0.286,0.005c0.114,0.003 0.201,0.007 0.26,0.013v1.057c-0.035,-0.009 -0.116,-0.022 -0.242,-0.04c-0.124,-0.021 -0.254,-0.031 -0.392,-0.031c-0.329,0 -0.623,0.069 -0.881,0.207c-0.255,0.135 -0.458,0.323 -0.608,0.564c-0.146,0.238 -0.22,0.509 -0.22,0.814v4.281zM87.097,55.885c-0.429,0 -0.818,-0.081 -1.167,-0.242c-0.349,-0.164 -0.627,-0.401 -0.832,-0.709c-0.206,-0.311 -0.308,-0.687 -0.308,-1.127c0,-0.388 0.076,-0.702 0.229,-0.943c0.152,-0.243 0.356,-0.434 0.612,-0.572c0.255,-0.138 0.537,-0.241 0.845,-0.308c0.311,-0.071 0.624,-0.127 0.938,-0.168c0.411,-0.053 0.744,-0.092 1,-0.119c0.258,-0.029 0.446,-0.077 0.563,-0.145c0.121,-0.067 0.181,-0.185 0.181,-0.352v-0.035c0,-0.435 -0.119,-0.772 -0.357,-1.013c-0.235,-0.241 -0.591,-0.361 -1.07,-0.361c-0.496,0 -0.885,0.108 -1.167,0.326c-0.282,0.217 -0.48,0.449 -0.594,0.695l-0.987,-0.352c0.176,-0.411 0.411,-0.731 0.705,-0.96c0.296,-0.232 0.619,-0.393 0.969,-0.484c0.352,-0.094 0.698,-0.141 1.039,-0.141c0.217,0 0.467,0.026 0.748,0.079c0.285,0.05 0.56,0.154 0.824,0.313c0.267,0.158 0.489,0.398 0.665,0.718c0.176,0.319 0.264,0.748 0.264,1.285v4.457h-1.039v-0.916h-0.053c-0.071,0.146 -0.188,0.303 -0.352,0.471c-0.165,0.167 -0.383,0.31 -0.656,0.427c-0.273,0.117 -0.607,0.176 -1,0.176zM87.255,54.952c0.411,0 0.758,-0.081 1.04,-0.243c0.284,-0.161 0.499,-0.37 0.643,-0.625c0.146,-0.255 0.22,-0.524 0.22,-0.806v-0.951c-0.044,0.053 -0.141,0.101 -0.291,0.145c-0.147,0.042 -0.317,0.078 -0.511,0.111c-0.19,0.029 -0.377,0.055 -0.559,0.079c-0.179,0.02 -0.324,0.038 -0.436,0.053c-0.27,0.035 -0.522,0.092 -0.757,0.171c-0.232,0.077 -0.42,0.193 -0.564,0.348c-0.141,0.153 -0.211,0.361 -0.211,0.626c0,0.361 0.133,0.634 0.4,0.819c0.271,0.182 0.613,0.273 1.026,0.273zM95.106,48.963v0.881h-3.646v-0.881zM92.552,55.727v-7.698c0,-0.387 0.091,-0.71 0.273,-0.968c0.182,-0.259 0.418,-0.452 0.709,-0.582c0.29,-0.129 0.597,-0.193 0.92,-0.193c0.255,0 0.464,0.02 0.625,0.061c0.162,0.041 0.282,0.08 0.361,0.115l-0.299,0.898c-0.053,-0.018 -0.126,-0.04 -0.22,-0.066c-0.091,-0.026 -0.212,-0.04 -0.361,-0.04c-0.344,0 -0.592,0.087 -0.745,0.26c-0.149,0.173 -0.224,0.427 -0.224,0.762v7.451zM99.504,48.963v0.881h-3.506v-0.881zM97.02,47.342h1.039v6.447c0,0.294 0.043,0.514 0.128,0.661c0.088,0.143 0.2,0.24 0.335,0.29c0.138,0.047 0.283,0.071 0.436,0.071c0.114,0 0.208,-0.006 0.281,-0.018c0.074,-0.015 0.132,-0.026 0.176,-0.035l0.212,0.933c-0.071,0.027 -0.169,0.053 -0.295,0.08c-0.126,0.029 -0.286,0.044 -0.48,0.044c-0.294,0 -0.581,-0.063 -0.863,-0.19c-0.279,-0.126 -0.511,-0.318 -0.696,-0.577c-0.182,-0.258 -0.273,-0.584 -0.273,-0.977zM103.83,55.867c-0.652,0 -1.214,-0.143 -1.687,-0.431c-0.469,-0.291 -0.832,-0.696 -1.087,-1.215c-0.253,-0.523 -0.379,-1.131 -0.379,-1.823c0,-0.693 0.126,-1.304 0.379,-1.832c0.255,-0.532 0.61,-0.945 1.065,-1.242c0.458,-0.299 0.993,-0.449 1.603,-0.449c0.352,0 0.7,0.059 1.044,0.176c0.343,0.117 0.656,0.308 0.938,0.572c0.282,0.262 0.506,0.608 0.673,1.04c0.168,0.431 0.251,0.963 0.251,1.594v0.44h-5.213v-0.898h4.157c0,-0.382 -0.077,-0.722 -0.229,-1.022c-0.15,-0.299 -0.364,-0.536 -0.643,-0.709c-0.276,-0.173 -0.602,-0.26 -0.978,-0.26c-0.414,0 -0.772,0.103 -1.074,0.309c-0.3,0.202 -0.53,0.466 -0.692,0.792c-0.161,0.326 -0.242,0.675 -0.242,1.048v0.599c0,0.511 0.088,0.944 0.264,1.299c0.18,0.352 0.428,0.621 0.745,0.806c0.317,0.182 0.685,0.273 1.105,0.273c0.273,0 0.52,-0.038 0.74,-0.115c0.223,-0.079 0.415,-0.196 0.577,-0.352c0.161,-0.158 0.286,-0.355 0.374,-0.59l1.004,0.282c-0.106,0.34 -0.283,0.64 -0.533,0.898c-0.25,0.256 -0.558,0.455 -0.925,0.599c-0.367,0.141 -0.779,0.211 -1.237,0.211zM110.765,55.867c-0.563,0 -1.061,-0.142 -1.492,-0.427c-0.432,-0.287 -0.77,-0.692 -1.013,-1.215c-0.244,-0.525 -0.366,-1.146 -0.366,-1.863c0,-0.71 0.122,-1.327 0.366,-1.849c0.243,-0.523 0.582,-0.926 1.017,-1.211c0.434,-0.285 0.936,-0.427 1.506,-0.427c0.44,0 0.788,0.073 1.043,0.22c0.259,0.144 0.456,0.308 0.591,0.493c0.138,0.182 0.245,0.332 0.321,0.449h0.088v-3.329h1.039v9.019h-1.004v-1.04h-0.123c-0.076,0.124 -0.185,0.279 -0.326,0.467c-0.141,0.185 -0.342,0.351 -0.603,0.498c-0.261,0.144 -0.609,0.215 -1.044,0.215zM110.906,54.934c0.417,0 0.769,-0.109 1.057,-0.326c0.288,-0.22 0.506,-0.524 0.656,-0.911c0.15,-0.391 0.225,-0.841 0.225,-1.352c0,-0.505 -0.074,-0.947 -0.22,-1.326c-0.147,-0.381 -0.365,-0.678 -0.652,-0.889c-0.288,-0.214 -0.643,-0.322 -1.066,-0.322c-0.44,0 -0.807,0.113 -1.101,0.339c-0.29,0.224 -0.509,0.527 -0.656,0.912c-0.144,0.382 -0.216,0.81 -0.216,1.286c0,0.481 0.074,0.919 0.221,1.312c0.149,0.39 0.37,0.702 0.66,0.933c0.294,0.229 0.658,0.344 1.092,0.344zM119.541,55.727v-9.019h1.092v4.016h4.809v-4.016h1.092v9.019h-1.092v-4.034h-4.809v4.034zM128.227,47.677v-0.969h6.764v0.969h-2.836v8.05h-1.092v-8.05zM136.676,46.708h1.303l3.065,7.486h0.106l3.065,-7.486h1.303v9.019h-1.022v-6.852h-0.088l-2.818,6.852h-0.986l-2.818,-6.852h-0.088v6.852h-1.022zM147.708,55.727v-9.019h1.092v8.05h4.192v0.969zM158.54,55.727h-1.145l3.312,-9.019h1.127l3.311,9.019h-1.145l-2.695,-7.592h-0.07zM158.963,52.204h4.615v0.969h-4.615zM168.963,55.867c-0.564,0 -1.061,-0.142 -1.493,-0.427c-0.431,-0.287 -0.769,-0.692 -1.013,-1.215c-0.243,-0.525 -0.365,-1.146 -0.365,-1.863c0,-0.71 0.122,-1.327 0.365,-1.849c0.244,-0.523 0.583,-0.926 1.018,-1.211c0.434,-0.285 0.936,-0.427 1.506,-0.427c0.44,0 0.788,0.073 1.043,0.22c0.258,0.144 0.455,0.308 0.59,0.493c0.138,0.182 0.245,0.332 0.322,0.449h0.088v-3.329h1.039v9.019h-1.004v-1.04h-0.123c-0.077,0.124 -0.185,0.279 -0.326,0.467c-0.141,0.185 -0.342,0.351 -0.603,0.498c-0.262,0.144 -0.61,0.215 -1.044,0.215zM169.104,54.934c0.417,0 0.769,-0.109 1.057,-0.326c0.287,-0.22 0.506,-0.524 0.656,-0.911c0.149,-0.391 0.224,-0.841 0.224,-1.352c0,-0.505 -0.073,-0.947 -0.22,-1.326c-0.147,-0.381 -0.364,-0.678 -0.652,-0.889c-0.287,-0.214 -0.642,-0.322 -1.065,-0.322c-0.441,0 -0.807,0.113 -1.101,0.339c-0.291,0.224 -0.509,0.527 -0.656,0.912c-0.144,0.382 -0.216,0.81 -0.216,1.286c0,0.481 0.073,0.919 0.22,1.312c0.15,0.39 0.37,0.702 0.661,0.933c0.293,0.229 0.657,0.344 1.092,0.344zM174.111,55.727v-6.764h1.003v1.057h0.089c0.14,-0.361 0.368,-0.642 0.682,-0.841c0.314,-0.203 0.691,-0.304 1.132,-0.304c0.446,0 0.817,0.101 1.114,0.304c0.299,0.199 0.533,0.48 0.7,0.841h0.07c0.174,-0.35 0.433,-0.627 0.78,-0.832c0.346,-0.209 0.762,-0.313 1.246,-0.313c0.605,0 1.099,0.189 1.484,0.568c0.385,0.376 0.577,0.961 0.577,1.757v4.527h-1.039v-4.527c0,-0.499 -0.137,-0.856 -0.41,-1.07c-0.273,-0.214 -0.594,-0.322 -0.964,-0.322c-0.476,0 -0.844,0.144 -1.106,0.432c-0.261,0.285 -0.391,0.646 -0.391,1.083v4.404h-1.057v-4.633c0,-0.384 -0.125,-0.694 -0.375,-0.929c-0.249,-0.238 -0.571,-0.357 -0.964,-0.357c-0.27,0 -0.522,0.072 -0.757,0.216c-0.232,0.144 -0.42,0.344 -0.564,0.599c-0.141,0.252 -0.211,0.545 -0.211,0.876v4.228zM184.888,55.727v-6.764h1.039v6.764zM185.416,47.836c-0.202,0 -0.377,-0.069 -0.524,-0.207c-0.144,-0.138 -0.216,-0.304 -0.216,-0.498c0,-0.194 0.072,-0.36 0.216,-0.497c0.147,-0.138 0.322,-0.207 0.524,-0.207c0.203,0 0.376,0.069 0.52,0.207c0.147,0.137 0.22,0.303 0.22,0.497c0,0.194 -0.073,0.36 -0.22,0.498c-0.144,0.138 -0.317,0.207 -0.52,0.207zM188.87,51.658v4.069h-1.04v-6.764h1.004v1.057h0.088c0.159,-0.344 0.4,-0.62 0.723,-0.828c0.323,-0.211 0.739,-0.317 1.25,-0.317c0.458,0 0.859,0.094 1.202,0.282c0.344,0.185 0.611,0.466 0.802,0.845c0.191,0.376 0.286,0.851 0.286,1.427v4.298h-1.039v-4.228c0,-0.531 -0.138,-0.945 -0.414,-1.241c-0.276,-0.3 -0.655,-0.45 -1.136,-0.45c-0.332,0 -0.628,0.072 -0.89,0.216c-0.258,0.144 -0.462,0.354 -0.612,0.63c-0.15,0.276 -0.224,0.61 -0.224,1.004zM201.495,55.727h-2.783v-9.019h2.907c0.874,0 1.623,0.181 2.245,0.542c0.623,0.358 1.1,0.873 1.431,1.546c0.332,0.669 0.498,1.47 0.498,2.404c0,0.939 -0.167,1.748 -0.502,2.426c-0.335,0.675 -0.822,1.195 -1.462,1.559c-0.64,0.361 -1.418,0.542 -2.334,0.542zM199.804,54.758h1.621c0.746,0 1.363,-0.144 1.854,-0.432c0.49,-0.287 0.855,-0.697 1.096,-1.228c0.241,-0.532 0.361,-1.164 0.361,-1.898c0,-0.728 -0.119,-1.355 -0.356,-1.88c-0.238,-0.529 -0.593,-0.934 -1.066,-1.216c-0.473,-0.284 -1.061,-0.427 -1.766,-0.427h-1.744zM209.474,55.885c-0.428,0 -0.817,-0.081 -1.167,-0.242c-0.349,-0.164 -0.626,-0.401 -0.832,-0.709c-0.205,-0.311 -0.308,-0.687 -0.308,-1.127c0,-0.388 0.076,-0.702 0.229,-0.943c0.153,-0.243 0.357,-0.434 0.612,-0.572c0.255,-0.138 0.537,-0.241 0.845,-0.308c0.312,-0.071 0.624,-0.127 0.938,-0.168c0.411,-0.053 0.745,-0.092 1,-0.119c0.258,-0.029 0.446,-0.077 0.564,-0.145c0.12,-0.067 0.18,-0.185 0.18,-0.352v-0.035c0,-0.435 -0.119,-0.772 -0.357,-1.013c-0.234,-0.241 -0.591,-0.361 -1.07,-0.361c-0.496,0 -0.885,0.108 -1.167,0.326c-0.281,0.217 -0.48,0.449 -0.594,0.695l-0.986,-0.352c0.176,-0.411 0.411,-0.731 0.704,-0.96c0.297,-0.232 0.62,-0.393 0.969,-0.484c0.352,-0.094 0.699,-0.141 1.039,-0.141c0.217,0 0.467,0.026 0.749,0.079c0.284,0.05 0.559,0.154 0.823,0.313c0.267,0.158 0.489,0.398 0.665,0.718c0.176,0.319 0.264,0.748 0.264,1.285v4.457h-1.039v-0.916h-0.053c-0.07,0.146 -0.188,0.303 -0.352,0.471c-0.164,0.167 -0.383,0.31 -0.656,0.427c-0.273,0.117 -0.606,0.176 -1,0.176zM209.633,54.952c0.411,0 0.757,-0.081 1.039,-0.243c0.285,-0.161 0.499,-0.37 0.643,-0.625c0.147,-0.255 0.22,-0.524 0.22,-0.806v-0.951c-0.044,0.053 -0.141,0.101 -0.291,0.145c-0.146,0.042 -0.317,0.078 -0.51,0.111c-0.191,0.029 -0.378,0.055 -0.56,0.079c-0.179,0.02 -0.324,0.038 -0.436,0.053c-0.27,0.035 -0.522,0.092 -0.757,0.171c-0.232,0.077 -0.42,0.193 -0.564,0.348c-0.14,0.153 -0.211,0.361 -0.211,0.626c0,0.361 0.134,0.634 0.401,0.819c0.27,0.182 0.612,0.273 1.026,0.273zM219.262,50.478l-0.934,0.264c-0.058,-0.156 -0.145,-0.307 -0.259,-0.454c-0.112,-0.149 -0.265,-0.273 -0.458,-0.37c-0.194,-0.096 -0.442,-0.145 -0.744,-0.145c-0.414,0 -0.759,0.096 -1.035,0.286c-0.273,0.188 -0.41,0.428 -0.41,0.718c0,0.258 0.094,0.462 0.282,0.612c0.188,0.15 0.481,0.275 0.881,0.374l1.004,0.247c0.604,0.147 1.055,0.371 1.352,0.674c0.296,0.299 0.444,0.685 0.444,1.158c0,0.387 -0.111,0.734 -0.334,1.039c-0.221,0.305 -0.529,0.546 -0.925,0.722c-0.396,0.176 -0.857,0.264 -1.383,0.264c-0.69,0 -1.261,-0.149 -1.713,-0.449c-0.452,-0.299 -0.738,-0.737 -0.858,-1.312l0.986,-0.246c0.094,0.364 0.272,0.637 0.533,0.819c0.264,0.182 0.609,0.273 1.035,0.273c0.484,0 0.869,-0.103 1.153,-0.309c0.288,-0.208 0.432,-0.458 0.432,-0.748c0,-0.235 -0.082,-0.432 -0.247,-0.59c-0.164,-0.162 -0.417,-0.282 -0.757,-0.361l-1.127,-0.265c-0.62,-0.146 -1.075,-0.374 -1.365,-0.682c-0.288,-0.311 -0.432,-0.7 -0.432,-1.167c0,-0.382 0.107,-0.719 0.321,-1.013c0.218,-0.293 0.513,-0.524 0.886,-0.691c0.375,-0.167 0.801,-0.251 1.277,-0.251c0.669,0 1.194,0.147 1.576,0.44c0.384,0.294 0.657,0.681 0.819,1.163zM221.989,51.658v4.069h-1.039v-9.019h1.039v3.312h0.088c0.158,-0.35 0.396,-0.627 0.713,-0.832c0.32,-0.209 0.746,-0.313 1.277,-0.313c0.461,0 0.865,0.092 1.211,0.277c0.347,0.182 0.615,0.463 0.806,0.841c0.194,0.376 0.291,0.855 0.291,1.436v4.298h-1.04v-4.228c0,-0.537 -0.139,-0.952 -0.418,-1.246c-0.276,-0.296 -0.659,-0.445 -1.149,-0.445c-0.341,0 -0.646,0.072 -0.916,0.216c-0.267,0.144 -0.479,0.354 -0.634,0.63c-0.153,0.276 -0.229,0.61 -0.229,1.004zM228.417,55.727v-9.019h1.039v3.329h0.088c0.076,-0.117 0.182,-0.267 0.317,-0.449c0.138,-0.185 0.335,-0.349 0.59,-0.493c0.258,-0.147 0.608,-0.22 1.048,-0.22c0.57,0 1.072,0.142 1.506,0.427c0.434,0.285 0.774,0.688 1.017,1.211c0.244,0.522 0.366,1.139 0.366,1.849c0,0.717 -0.122,1.338 -0.366,1.863c-0.243,0.523 -0.581,0.928 -1.013,1.215c-0.431,0.285 -0.929,0.427 -1.492,0.427c-0.435,0 -0.783,-0.071 -1.044,-0.215c-0.261,-0.147 -0.462,-0.313 -0.603,-0.498c-0.141,-0.188 -0.25,-0.343 -0.326,-0.467h-0.123v1.04zM229.438,52.345c0,0.511 0.075,0.961 0.225,1.352c0.15,0.387 0.368,0.691 0.656,0.911c0.288,0.217 0.64,0.326 1.057,0.326c0.434,0 0.797,-0.115 1.087,-0.344c0.294,-0.231 0.514,-0.543 0.661,-0.933c0.15,-0.393 0.224,-0.831 0.224,-1.312c0,-0.476 -0.073,-0.904 -0.22,-1.286c-0.144,-0.385 -0.362,-0.688 -0.656,-0.912c-0.29,-0.226 -0.656,-0.339 -1.096,-0.339c-0.423,0 -0.778,0.108 -1.066,0.322c-0.288,0.211 -0.505,0.508 -0.652,0.889c-0.146,0.379 -0.22,0.821 -0.22,1.326zM238.725,55.867c-0.611,0 -1.146,-0.145 -1.607,-0.435c-0.458,-0.291 -0.816,-0.698 -1.075,-1.22c-0.255,-0.523 -0.383,-1.133 -0.383,-1.832c0,-0.705 0.128,-1.32 0.383,-1.845c0.259,-0.526 0.617,-0.934 1.075,-1.224c0.461,-0.291 0.996,-0.436 1.607,-0.436c0.611,0 1.145,0.145 1.603,0.436c0.461,0.29 0.819,0.698 1.074,1.224c0.259,0.525 0.388,1.14 0.388,1.845c0,0.699 -0.129,1.309 -0.388,1.832c-0.255,0.522 -0.613,0.929 -1.074,1.22c-0.458,0.29 -0.992,0.435 -1.603,0.435zM238.725,54.934c0.464,0 0.845,-0.119 1.145,-0.357c0.299,-0.238 0.521,-0.55 0.665,-0.938c0.144,-0.387 0.216,-0.807 0.216,-1.259c0,-0.452 -0.072,-0.873 -0.216,-1.264c-0.144,-0.39 -0.366,-0.706 -0.665,-0.947c-0.3,-0.24 -0.681,-0.361 -1.145,-0.361c-0.464,0 -0.845,0.121 -1.145,0.361c-0.299,0.241 -0.521,0.557 -0.665,0.947c-0.144,0.391 -0.216,0.812 -0.216,1.264c0,0.452 0.072,0.872 0.216,1.259c0.144,0.388 0.366,0.7 0.665,0.938c0.3,0.238 0.681,0.357 1.145,0.357zM245.366,55.885c-0.428,0 -0.817,-0.081 -1.166,-0.242c-0.35,-0.164 -0.627,-0.401 -0.833,-0.709c-0.205,-0.311 -0.308,-0.687 -0.308,-1.127c0,-0.388 0.076,-0.702 0.229,-0.943c0.153,-0.243 0.357,-0.434 0.612,-0.572c0.256,-0.138 0.537,-0.241 0.846,-0.308c0.311,-0.071 0.623,-0.127 0.938,-0.168c0.411,-0.053 0.744,-0.092 0.999,-0.119c0.258,-0.029 0.446,-0.077 0.564,-0.145c0.12,-0.067 0.18,-0.185 0.18,-0.352v-0.035c0,-0.435 -0.119,-0.772 -0.356,-1.013c-0.235,-0.241 -0.592,-0.361 -1.07,-0.361c-0.497,0 -0.886,0.108 -1.167,0.326c-0.282,0.217 -0.48,0.449 -0.595,0.695l-0.986,-0.352c0.176,-0.411 0.411,-0.731 0.704,-0.96c0.297,-0.232 0.62,-0.393 0.969,-0.484c0.352,-0.094 0.699,-0.141 1.039,-0.141c0.218,0 0.467,0.026 0.749,0.079c0.285,0.05 0.559,0.154 0.823,0.313c0.268,0.158 0.489,0.398 0.665,0.718c0.176,0.319 0.264,0.748 0.264,1.285v4.457h-1.039v-0.916h-0.053c-0.07,0.146 -0.187,0.303 -0.352,0.471c-0.164,0.167 -0.383,0.31 -0.656,0.427c-0.273,0.117 -0.606,0.176 -1,0.176zM245.525,54.952c0.411,0 0.757,-0.081 1.039,-0.243c0.285,-0.161 0.499,-0.37 0.643,-0.625c0.147,-0.255 0.22,-0.524 0.22,-0.806v-0.951c-0.044,0.053 -0.141,0.101 -0.29,0.145c-0.147,0.042 -0.317,0.078 -0.511,0.111c-0.191,0.029 -0.377,0.055 -0.559,0.079c-0.179,0.02 -0.325,0.038 -0.436,0.053c-0.27,0.035 -0.523,0.092 -0.758,0.171c-0.232,0.077 -0.419,0.193 -0.563,0.348c-0.141,0.153 -0.212,0.361 -0.212,0.626c0,0.361 0.134,0.634 0.401,0.819c0.27,0.182 0.612,0.273 1.026,0.273zM250.363,55.727v-6.764h1.004v1.022h0.071c0.123,-0.335 0.346,-0.607 0.669,-0.815c0.323,-0.209 0.687,-0.313 1.092,-0.313c0.076,0 0.172,0.002 0.286,0.005c0.115,0.003 0.201,0.007 0.26,0.013v1.057c-0.035,-0.009 -0.116,-0.022 -0.242,-0.04c-0.123,-0.021 -0.254,-0.031 -0.392,-0.031c-0.329,0 -0.622,0.069 -0.881,0.207c-0.255,0.135 -0.458,0.323 -0.607,0.564c-0.147,0.238 -0.221,0.509 -0.221,0.814v4.281zM257.325,55.867c-0.564,0 -1.061,-0.142 -1.493,-0.427c-0.431,-0.287 -0.769,-0.692 -1.013,-1.215c-0.243,-0.525 -0.365,-1.146 -0.365,-1.863c0,-0.71 0.122,-1.327 0.365,-1.849c0.244,-0.523 0.583,-0.926 1.018,-1.211c0.434,-0.285 0.936,-0.427 1.506,-0.427c0.44,0 0.788,0.073 1.043,0.22c0.259,0.144 0.455,0.308 0.59,0.493c0.138,0.182 0.245,0.332 0.322,0.449h0.088v-3.329h1.039v9.019h-1.004v-1.04h-0.123c-0.077,0.124 -0.185,0.279 -0.326,0.467c-0.141,0.185 -0.342,0.351 -0.603,0.498c-0.262,0.144 -0.61,0.215 -1.044,0.215zM257.466,54.934c0.417,0 0.769,-0.109 1.057,-0.326c0.287,-0.22 0.506,-0.524 0.656,-0.911c0.15,-0.391 0.224,-0.841 0.224,-1.352c0,-0.505 -0.073,-0.947 -0.22,-1.326c-0.147,-0.381 -0.364,-0.678 -0.651,-0.889c-0.288,-0.214 -0.643,-0.322 -1.066,-0.322c-0.44,0 -0.807,0.113 -1.101,0.339c-0.291,0.224 -0.509,0.527 -0.656,0.912c-0.144,0.382 -0.216,0.81 -0.216,1.286c0,0.481 0.074,0.919 0.22,1.312c0.15,0.39 0.37,0.702 0.661,0.933c0.293,0.229 0.657,0.344 1.092,0.344zM17.6321,62.677v-0.969h6.7636v0.969h-2.8358v8.05h-1.092v-8.05zM27.7951,70.867c-0.6517,0 -1.2138,-0.143 -1.6865,-0.431c-0.4697,-0.291 -0.8322,-0.696 -1.0876,-1.215c-0.2525,-0.523 -0.3787,-1.131 -0.3787,-1.823c0,-0.693 0.1262,-1.304 0.3787,-1.832c0.2554,-0.532 0.6106,-0.945 1.0656,-1.242c0.458,-0.299 0.9922,-0.449 1.6029,-0.449c0.3522,0 0.7001,0.059 1.0436,0.176c0.3434,0.117 0.6561,0.308 0.9379,0.572c0.2818,0.262 0.5064,0.608 0.6737,1.04c0.1673,0.431 0.251,0.963 0.251,1.594v0.44h-5.2136v-0.898h4.1568c0,-0.382 -0.0763,-0.722 -0.229,-1.022c-0.1497,-0.299 -0.364,-0.536 -0.6429,-0.709c-0.2759,-0.173 -0.6018,-0.26 -0.9775,-0.26c-0.414,0 -0.7721,0.103 -1.0745,0.309c-0.2994,0.202 -0.5299,0.466 -0.6913,0.792c-0.1615,0.326 -0.2422,0.675 -0.2422,1.048v0.599c0,0.511 0.0881,0.944 0.2642,1.299c0.1791,0.352 0.4271,0.621 0.7442,0.806c0.317,0.182 0.6854,0.273 1.1052,0.273c0.273,0 0.5196,-0.038 0.7398,-0.115c0.2231,-0.079 0.4154,-0.196 0.5769,-0.352c0.1614,-0.158 0.2862,-0.355 0.3742,-0.59l1.004,0.282c-0.1057,0.34 -0.2833,0.64 -0.5328,0.898c-0.2495,0.256 -0.5578,0.455 -0.9247,0.599c-0.367,0.141 -0.7794,0.211 -1.2374,0.211zM32.1765,70.727v-6.764h1.004v1.057h0.0881c0.1409,-0.361 0.3684,-0.642 0.6825,-0.841c0.3141,-0.203 0.6913,-0.304 1.1317,-0.304c0.4462,0 0.8175,0.101 1.114,0.304c0.2995,0.199 0.5329,0.48 0.7002,0.841h0.0704c0.1732,-0.35 0.433,-0.627 0.7794,-0.832c0.3464,-0.209 0.7618,-0.313 1.2462,-0.313c0.6047,0 1.0994,0.189 1.484,0.568c0.3845,0.376 0.5768,0.961 0.5768,1.757v4.527h-1.0392v-4.527c0,-0.499 -0.1365,-0.856 -0.4095,-1.07c-0.273,-0.214 -0.5945,-0.322 -0.9644,-0.322c-0.4755,0 -0.844,0.144 -1.1052,0.432c-0.2613,0.285 -0.3919,0.646 -0.3919,1.083v4.404h-1.0568v-4.633c0,-0.384 -0.1248,-0.694 -0.3743,-0.929c-0.2496,-0.238 -0.571,-0.357 -0.9644,-0.357c-0.2701,0 -0.5225,0.072 -0.7574,0.216c-0.2319,0.144 -0.4198,0.344 -0.5636,0.599c-0.1409,0.252 -0.2114,0.545 -0.2114,0.876v4.228zM42.9539,73.263v-9.3h1.0039v1.074h0.1233c0.0764,-0.117 0.1821,-0.267 0.3171,-0.449c0.138,-0.185 0.3346,-0.349 0.59,-0.493c0.2584,-0.147 0.6077,-0.22 1.0481,-0.22c0.5695,0 1.0715,0.142 1.5059,0.427c0.4345,0.285 0.7736,0.688 1.0172,1.211c0.2437,0.522 0.3655,1.139 0.3655,1.849c0,0.717 -0.1218,1.338 -0.3655,1.863c-0.2436,0.523 -0.5812,0.928 -1.0128,1.215c-0.4315,0.285 -0.9291,0.427 -1.4927,0.427c-0.4345,0 -0.7824,-0.071 -1.0436,-0.215c-0.2613,-0.147 -0.4624,-0.313 -0.6033,-0.498c-0.1409,-0.188 -0.2495,-0.343 -0.3259,-0.467h-0.088v3.576zM43.9755,67.345c0,0.511 0.0748,0.961 0.2245,1.352c0.1498,0.387 0.3685,0.691 0.6561,0.911c0.2877,0.217 0.64,0.326 1.0569,0.326c0.4344,0 0.797,-0.115 1.0876,-0.344c0.2936,-0.231 0.5137,-0.543 0.6605,-0.933c0.1497,-0.393 0.2246,-0.831 0.2246,-1.312c0,-0.476 -0.0734,-0.904 -0.2202,-1.286c-0.1438,-0.385 -0.3625,-0.688 -0.6561,-0.912c-0.2906,-0.226 -0.6561,-0.339 -1.0964,-0.339c-0.4228,0 -0.778,0.108 -1.0657,0.322c-0.2877,0.211 -0.5049,0.508 -0.6517,0.889c-0.1467,0.379 -0.2201,0.821 -0.2201,1.326zM51.5493,61.708v9.019h-1.0392v-9.019zM55.443,70.885c-0.4286,0 -0.8175,-0.081 -1.1669,-0.242c-0.3493,-0.164 -0.6267,-0.401 -0.8322,-0.709c-0.2055,-0.311 -0.3082,-0.687 -0.3082,-1.127c0,-0.388 0.0763,-0.702 0.2289,-0.943c0.1527,-0.243 0.3567,-0.434 0.6121,-0.572c0.2554,-0.138 0.5372,-0.241 0.8455,-0.308c0.3111,-0.071 0.6238,-0.127 0.9379,-0.168c0.411,-0.053 0.7442,-0.092 0.9996,-0.119c0.2583,-0.029 0.4462,-0.077 0.5636,-0.145c0.1204,-0.067 0.1805,-0.185 0.1805,-0.352v-0.035c0,-0.435 -0.1189,-0.772 -0.3566,-1.013c-0.2349,-0.241 -0.5916,-0.361 -1.0701,-0.361c-0.4961,0 -0.8851,0.108 -1.1669,0.326c-0.2818,0.217 -0.4799,0.449 -0.5944,0.695l-0.9864,-0.352c0.1761,-0.411 0.411,-0.731 0.7045,-0.96c0.2965,-0.232 0.6195,-0.393 0.9688,-0.484c0.3523,-0.094 0.6987,-0.141 1.0392,-0.141c0.2172,0 0.4668,0.026 0.7486,0.079c0.2847,0.05 0.5592,0.154 0.8234,0.313c0.2672,0.158 0.4888,0.398 0.6649,0.718c0.1762,0.319 0.2642,0.748 0.2642,1.285v4.457h-1.0392v-0.916h-0.0528c-0.0705,0.146 -0.1879,0.303 -0.3523,0.471c-0.1644,0.167 -0.3831,0.31 -0.6561,0.427c-0.273,0.117 -0.6062,0.176 -0.9996,0.176zM55.6016,69.952c0.4109,0 0.7573,-0.081 1.0392,-0.243c0.2847,-0.161 0.499,-0.37 0.6429,-0.625c0.1467,-0.255 0.2201,-0.524 0.2201,-0.806v-0.951c-0.044,0.053 -0.1409,0.101 -0.2906,0.145c-0.1468,0.042 -0.317,0.078 -0.5108,0.111c-0.1908,0.029 -0.3772,0.055 -0.5592,0.079c-0.1791,0.02 -0.3244,0.038 -0.436,0.053c-0.27,0.035 -0.5225,0.092 -0.7573,0.171c-0.232,0.077 -0.4198,0.193 -0.5637,0.348c-0.1409,0.153 -0.2113,0.361 -0.2113,0.626c0,0.361 0.1335,0.634 0.4007,0.819c0.27,0.182 0.612,0.273 1.026,0.273zM63.3813,63.963v0.881h-3.5051v-0.881zM60.8978,62.342h1.0392v6.447c0,0.294 0.0425,0.514 0.1277,0.661c0.088,0.143 0.1996,0.24 0.3346,0.29c0.138,0.047 0.2833,0.071 0.436,0.071c0.1144,0 0.2084,-0.006 0.2818,-0.018c0.0734,-0.015 0.1321,-0.026 0.1761,-0.035l0.2114,0.933c-0.0705,0.027 -0.1688,0.053 -0.295,0.08c-0.1263,0.029 -0.2863,0.044 -0.48,0.044c-0.2936,0 -0.5813,-0.063 -0.8631,-0.19c-0.2789,-0.126 -0.5108,-0.318 -0.6957,-0.577c-0.182,-0.258 -0.273,-0.584 -0.273,-0.977zM67.708,70.867c-0.652,0 -1.2142,-0.143 -1.6869,-0.431c-0.4697,-0.291 -0.8322,-0.696 -1.0876,-1.215c-0.2525,-0.523 -0.3787,-1.131 -0.3787,-1.823c0,-0.693 0.1262,-1.304 0.3787,-1.832c0.2554,-0.532 0.6106,-0.945 1.0656,-1.242c0.458,-0.299 0.9919,-0.449 1.6029,-0.449c0.352,0 0.7,0.059 1.044,0.176c0.343,0.117 0.656,0.308 0.937,0.572c0.282,0.262 0.507,0.608 0.674,1.04c0.168,0.431 0.251,0.963 0.251,1.594v0.44h-5.2134v-0.898h4.1564c0,-0.382 -0.076,-0.722 -0.229,-1.022c-0.149,-0.299 -0.364,-0.536 -0.642,-0.709c-0.276,-0.173 -0.602,-0.26 -0.978,-0.26c-0.414,0 -0.772,0.103 -1.074,0.309c-0.2999,0.202 -0.5304,0.466 -0.6918,0.792c-0.1615,0.326 -0.2422,0.675 -0.2422,1.048v0.599c0,0.511 0.0881,0.944 0.2642,1.299c0.1791,0.352 0.4271,0.621 0.7438,0.806c0.317,0.182 0.686,0.273 1.106,0.273c0.273,0 0.519,-0.038 0.739,-0.115c0.224,-0.079 0.416,-0.196 0.577,-0.352c0.162,-0.158 0.286,-0.355 0.375,-0.59l1.004,0.282c-0.106,0.34 -0.284,0.64 -0.533,0.898c-0.25,0.256 -0.558,0.455 -0.925,0.599c-0.367,0.141 -0.779,0.211 -1.237,0.211zM72.846,70.797c-0.217,0 -0.403,-0.078 -0.559,-0.233c-0.155,-0.156 -0.233,-0.342 -0.233,-0.56c0,-0.217 0.078,-0.403 0.233,-0.559c0.156,-0.155 0.342,-0.233 0.559,-0.233c0.218,0 0.404,0.078 0.56,0.233c0.155,0.156 0.233,0.342 0.233,0.559c0,0.144 -0.037,0.276 -0.11,0.397c-0.071,0.12 -0.166,0.217 -0.286,0.29c-0.118,0.071 -0.25,0.106 -0.397,0.106z" fill="white"/>
</g>
<path id="Rectangle 1" data-node-id="156:414" d="M0.5,92.313c0,-1.369 1.1103,-2.48 2.48,-2.48h27.3237c2.3789,0 3.3931,3.025 1.4951,4.459l-27.3238,20.645c-1.6338,1.234 -3.975,0.069 -3.975,-1.979z" fill="#00843D"/>
<g id="Frame 31" data-node-id="156:415">
<g id="timestamp" data-node-id="156:416">
<path id="timestamp_2" data-node-id="I156:416;229:2737" d="M27.7638,115.673l2.6891,-5.319v-0.047h-3.1v-0.646h3.8515v0.681l-2.6773,5.331zM32.5327,114.904c-0.1448,0 -0.2691,-0.052 -0.3728,-0.155c-0.1037,-0.104 -0.1556,-0.228 -0.1556,-0.373c0,-0.145 0.0519,-0.269 0.1556,-0.373c0.1037,-0.104 0.228,-0.156 0.3728,-0.156c0.1449,0 0.2691,0.052 0.3729,0.156c0.1037,0.104 0.1555,0.228 0.1555,0.373c0,0.096 -0.0244,0.184 -0.0733,0.264c-0.047,0.08 -0.1106,0.145 -0.1909,0.194c-0.0782,0.047 -0.1663,0.07 -0.2642,0.07zM32.5327,111.863c-0.1448,0 -0.2691,-0.052 -0.3728,-0.156c-0.1037,-0.103 -0.1556,-0.228 -0.1556,-0.372c0,-0.145 0.0519,-0.27 0.1556,-0.373c0.1037,-0.104 0.228,-0.156 0.3728,-0.156c0.1449,0 0.2691,0.052 0.3729,0.156c0.1037,0.103 0.1555,0.228 0.1555,0.373c0,0.095 -0.0244,0.183 -0.0733,0.264c-0.047,0.08 -0.1106,0.145 -0.1909,0.193c-0.0782,0.047 -0.1663,0.071 -0.2642,0.071zM34.2926,115.673v-0.528l1.9845,-2.172c0.2329,-0.255 0.4247,-0.476 0.5754,-0.664c0.1507,-0.19 0.2622,-0.368 0.3346,-0.534c0.0744,-0.168 0.1116,-0.345 0.1116,-0.529c0,-0.211 -0.0509,-0.394 -0.1527,-0.549c-0.0998,-0.154 -0.2368,-0.274 -0.4109,-0.358c-0.1742,-0.084 -0.3699,-0.126 -0.5872,-0.126c-0.2309,0 -0.4325,0.048 -0.6047,0.144c-0.1703,0.094 -0.3024,0.226 -0.3963,0.396c-0.092,0.171 -0.138,0.37 -0.138,0.599h-0.6928c0,-0.352 0.0812,-0.661 0.2437,-0.928c0.1624,-0.266 0.3836,-0.473 0.6634,-0.622c0.2818,-0.149 0.5979,-0.223 0.9482,-0.223c0.3523,0 0.6644,0.074 0.9365,0.223c0.272,0.149 0.4853,0.349 0.6399,0.602c0.1546,0.252 0.2319,0.533 0.2319,0.842c0,0.222 -0.0401,0.438 -0.1203,0.649c-0.0783,0.21 -0.2153,0.443 -0.411,0.702c-0.1937,0.256 -0.4628,0.569 -0.8073,0.939l-1.3504,1.445v0.047h2.7947v0.645zM41.2588,115.756c-0.4423,0 -0.819,-0.121 -1.1302,-0.362c-0.3112,-0.242 -0.5489,-0.594 -0.7133,-1.053c-0.1644,-0.462 -0.2466,-1.02 -0.2466,-1.674c0,-0.649 0.0822,-1.204 0.2466,-1.664c0.1663,-0.462 0.4051,-0.814 0.7162,-1.057c0.3132,-0.245 0.6889,-0.367 1.1273,-0.367c0.4384,0 0.8132,0.122 1.1244,0.367c0.3131,0.243 0.5519,0.595 0.7162,1.057c0.1664,0.46 0.2496,1.015 0.2496,1.664c0,0.654 -0.0822,1.212 -0.2466,1.674c-0.1644,0.459 -0.4022,0.811 -0.7134,1.053c-0.3111,0.241 -0.6879,0.362 -1.1302,0.362zM41.2588,115.11c0.4384,0 0.7789,-0.212 1.0216,-0.634c0.2427,-0.423 0.364,-1.026 0.364,-1.809c0,-0.52 -0.0557,-0.964 -0.1673,-1.33c-0.1096,-0.366 -0.2681,-0.644 -0.4756,-0.836c-0.2055,-0.192 -0.453,-0.288 -0.7427,-0.288c-0.4344,0 -0.774,0.214 -1.0186,0.643c-0.2447,0.427 -0.367,1.03 -0.367,1.811c0,0.521 0.0548,0.963 0.1644,1.327c0.1096,0.364 0.2671,0.641 0.4726,0.831c0.2075,0.19 0.457,0.285 0.7486,0.285z" fill="#888888"/>
</g>
</g>
</g><g id="3 icons" data-node-id="156:424">
<path d="M253.5,102.113c0,-3.652 2.961,-6.613 6.613,-6.613h46.294c3.652,0 6.613,2.961 6.613,6.613v6.614c0,3.652 -2.961,6.613 -6.613,6.613h-46.294c-3.652,0 -6.613,-2.961 -6.613,-6.613z" fill="#00DA65" fill-opacity="0.74"/>
<g id="vuesax/outline/clipboard-text" data-node-id="I156:424;229:2674">
<g id="vuesax/outline/clipboard-text_2" data-node-id="I156:424;229:2674;3174:9723">
<g id="clipboard-text" data-node-id="I156:424;229:2674;3173:23856">
<path id="Vector_4" data-node-id="I156:424;229:2674;3173:23858" d="M265.073,105.943h-3.857c-0.226,0 -0.414,-0.187 -0.414,-0.413c0,-0.226 0.188,-0.413 0.414,-0.413h3.857c0.226,0 0.414,0.187 0.414,0.413c0,0.226 -0.188,0.413 -0.414,0.413z" fill="white"/>
<path id="Vector_5" data-node-id="I156:424;229:2674;3173:23859" d="M263.629,108.148h-2.413c-0.226,0 -0.414,-0.187 -0.414,-0.413c0,-0.226 0.188,-0.414 0.414,-0.414h2.413c0.226,0 0.414,0.188 0.414,0.414c0,0.226 -0.188,0.413 -0.414,0.413z" fill="white"/>
<path id="Vector_6" data-node-id="I156:424;229:2674;3173:23860" d="M264.522,102.527h-2.204c-0.529,0 -1.516,0 -1.516,-1.516c0,-1.515 0.987,-1.515 1.516,-1.515h2.204c0.529,0 1.516,0 1.516,1.515c0,0.529 0,1.516 -1.516,1.516zM262.318,100.322c-0.546,0 -0.689,0 -0.689,0.689c0,0.689 0.143,0.689 0.689,0.689h2.204c0.689,0 0.689,-0.143 0.689,-0.689c0,-0.689 -0.143,-0.689 -0.689,-0.689z" fill="white"/>
<path id="Vector_7" data-node-id="I156:424;229:2674;3173:23861" d="M265.074,111.345h-3.307c-3.097,0 -3.72,-1.422 -3.72,-3.72v-3.307c0,-2.513 0.909,-3.588 3.147,-3.704c0.22,-0.011 0.424,0.16 0.435,0.392c0.011,0.231 -0.165,0.419 -0.391,0.43c-1.565,0.088 -2.364,0.556 -2.364,2.882v3.307c0,2.039 0.402,2.893 2.893,2.893h3.307c2.491,0 2.893,-0.854 2.893,-2.893v-3.307c0,-2.326 -0.799,-2.794 -2.364,-2.882c-0.226,-0.011 -0.403,-0.21 -0.392,-0.436c0.011,-0.226 0.21,-0.402 0.436,-0.391c2.237,0.121 3.147,1.196 3.147,3.703v3.307c0,2.304 -0.623,3.726 -3.72,3.726z" fill="white"/>
</g>
</g>
</g>
<g id="vuesax/linear/like" data-node-id="I156:424;229:2675">
<g id="vuesax/linear/like_2" data-node-id="I156:424;229:2675;3125:33612">
<g id="like" data-node-id="I156:424;229:2675;3109:33528">
<path id="Vector_8" data-node-id="I156:424;229:2675;3109:33530" d="M280.769,108.92l1.708,1.322c0.22,0.221 0.716,0.331 1.047,0.331h2.094c0.662,0 1.378,-0.496 1.543,-1.157l1.323,-4.023c0.276,-0.772 -0.22,-1.433 -1.047,-1.433h-2.204c-0.331,0 -0.607,-0.276 -0.552,-0.662l0.276,-1.763c0.11,-0.496 -0.22,-1.047 -0.716,-1.213c-0.441,-0.165 -0.992,0.055 -1.213,0.386l-2.259,3.362" stroke="white" stroke-width="0.826667" stroke-miterlimit="10"/>
<path id="Vector_9" data-node-id="I156:424;229:2675;3109:33531" d="M277.958,108.92v-5.401c0,-0.772 0.331,-1.047 1.102,-1.047h0.551c0.772,0 1.103,0.275 1.103,1.047v5.401c0,0.771 -0.331,1.047 -1.103,1.047h-0.551c-0.771,0 -1.102,-0.276 -1.102,-1.047z" stroke="white" stroke-width="0.826667" stroke-linecap="round" stroke-linejoin="round"/>
</g>
</g>
</g>
<g id="vuesax/linear/dislike" data-node-id="I156:424;229:2676">
<g id="vuesax/linear/dislike_2" data-node-id="I156:424;229:2676;3109:33497">
<g id="dislike" data-node-id="I156:424;229:2676;3109:33498">
<path id="Vector_10" data-node-id="I156:424;229:2676;3109:33499" d="M305.591,101.92l-1.709,-1.322c-0.22,-0.221 -0.716,-0.331 -1.047,-0.331h-2.094c-0.661,0 -1.378,0.496 -1.543,1.157l-1.323,4.024c-0.275,0.771 0.221,1.432 1.047,1.432h2.205c0.331,0 0.606,0.276 0.551,0.662l-0.276,1.763c-0.11,0.496 0.221,1.047 0.717,1.213c0.441,0.165 0.992,-0.055 1.212,-0.386l2.26,-3.362" stroke="white" stroke-width="0.826667" stroke-miterlimit="10"/>
<path id="Vector_11" data-node-id="I156:424;229:2676;3109:33500" d="M308.402,101.921v5.401c0,0.771 -0.331,1.047 -1.102,1.047h-0.551c-0.772,0 -1.103,-0.276 -1.103,-1.047v-5.401c0,-0.772 0.331,-1.047 1.103,-1.047h0.551c0.771,0 1.102,0.275 1.102,1.047z" stroke="white" stroke-width="0.826667" stroke-linecap="round" stroke-linejoin="round"/>
</g>
</g>
</g>
</g></g><defs><filter id="filter0_d_156_404" x="-0.32670000000000243" y="0.5" width="322.653" height="117.735" filterUnits="userSpaceOnUse" color-interpolation-filters="sRGB">
<feFlood flood-opacity="0" result="BackgroundImageFix"/>
<feColorMatrix in="SourceAlpha" type="matrix" values="0 0 0 0 0 0 0 0 0 0 0 0 0 0 0 0 0 0 127 0" result="hardAlpha"/>
<feOffset dy="1.65333"/>
<feGaussianBlur stdDeviation="0.413333"/>
<feComposite in2="hardAlpha" operator="out"/>
<feColorMatrix type="matrix" values="0 0 0 0 0 0 0 0 0 0 0 0 0 0 0 0 0 0 0.05 0"/>
<feBlend mode="normal" in2="BackgroundImageFix" result="effect1_dropShadow_156_404"/>
<feBlend mode="normal" in="SourceGraphic" in2="effect1_dropShadow_156_404" result="shape"/>
</filter></defs></svg>