<svg viewBox="0 0 35.0091 34.9966" x="0" y="0" fill="none" xmlns="http://www.w3.org/2000/svg"><path id="Vector_37" d="M16.4168,0.4204c0.622,-0.5606 1.565,-0.5606 2.187,0l15.86,14.2187c0.676,0.6016 0.731,1.6407 0.123,2.3174c-0.609,0.6768 -1.641,0.7315 -2.318,0.1231l-0.547,-0.4922v14.0342c0,2.413 -1.962,4.375 -4.375,4.375h-19.687c-2.413,0 -4.375,-1.962 -4.375,-4.375v-14.0342l-0.547,0.4922c-0.677,0.6015 -1.709,0.5468 -2.317,-0.1231c-0.609,-0.6699 -0.547,-1.709 0.123,-2.3174zM17.5098,3.8452l-10.937,9.8096v16.9736c0,0.6016 0.492,1.0937 1.094,1.0937h3.281v-7.1093c0,-2.7207 2.201,-4.9219 4.922,-4.9219h3.281c2.721,0 4.922,2.2012 4.922,4.9219v7.1093h3.281c0.602,0 1.094,-0.4921 1.094,-1.0937v-16.9736l-10.938,-9.8028zM14.2288,31.7221h6.563v-7.1093c0,-0.9092 -0.732,-1.6407 -1.641,-1.6407h-3.281c-0.909,0 -1.641,0.7315 -1.641,1.6407z" fill="currentColor" xmlns="http://www.w3.org/2000/svg"/></svg>