<svg viewBox="0 0 8.97 12.25" x="0" y="0" fill="none" xmlns="http://www.w3.org/2000/svg"><path id="Vector_7" d="M-0.0008,12.245c0,-0.84 0.206,-1.63 0.617,-2.35c0.396,-0.7 0.931,-1.26 1.604,-1.67c0.695,-0.43 1.45,-0.64 2.264,-0.64c0.815,0 1.57,0.21 2.265,0.64c0.673,0.41 1.208,0.97 1.604,1.67c0.411,0.72 0.616,1.51 0.616,2.35h-1.121c0,-0.62 -0.153,-1.21 -0.46,-1.76c-0.299,-0.53 -0.702,-0.95 -1.21,-1.26c-0.524,-0.32 -1.088,-0.48 -1.694,-0.48c-0.605,0 -1.169,0.16 -1.693,0.48c-0.508,0.31 -0.912,0.73 -1.211,1.26c-0.306,0.55 -0.459,1.14 -0.459,1.76zM4.4842,7.005c-0.612,0 -1.177,-0.16 -1.693,-0.48c-0.508,-0.31 -0.912,-0.73 -1.211,-1.26c-0.306,-0.54 -0.459,-1.13 -0.459,-1.76c0,-0.64 0.153,-1.23 0.459,-1.77c0.299,-0.53 0.703,-0.95 1.211,-1.26c0.516,-0.32 1.081,-0.47 1.693,-0.47c0.613,0 1.178,0.15 1.694,0.47c0.508,0.31 0.911,0.73 1.21,1.26c0.307,0.54 0.46,1.13 0.46,1.77c0,0.63 -0.153,1.22 -0.46,1.76c-0.299,0.53 -0.702,0.95 -1.21,1.26c-0.516,0.32 -1.081,0.48 -1.694,0.48zM4.4842,5.835c0.404,0 0.778,-0.11 1.122,-0.32c0.344,-0.21 0.616,-0.49 0.818,-0.85c0.202,-0.36 0.303,-0.74 0.303,-1.16c0,-0.43 -0.101,-0.81 -0.303,-1.17c-0.202,-0.36 -0.474,-0.64 -0.818,-0.85c-0.344,-0.21 -0.718,-0.32 -1.122,-0.32c-0.403,0 -0.777,0.11 -1.121,0.32c-0.344,0.21 -0.616,0.49 -0.818,0.85c-0.202,0.36 -0.303,0.74 -0.303,1.17c0,0.42 0.101,0.8 0.303,1.16c0.202,0.36 0.474,0.64 0.818,0.85c0.344,0.21 0.718,0.32 1.121,0.32z" fill="currentColor" xmlns="http://www.w3.org/2000/svg"/></svg>