<svg viewBox="0 0 10.0913 12.25" x="0" y="0" fill="none" xmlns="http://www.w3.org/2000/svg"><path id="Vector_6" d="M2.2418,4.085v-1.17c0,-0.53 0.126,-1.02 0.376,-1.46c0.25,-0.45 0.591,-0.8 1.02,-1.06c0.43,-0.26 0.899,-0.39 1.408,-0.39c0.508,0 0.977,0.13 1.407,0.39c0.43,0.26 0.77,0.61 1.02,1.06c0.25,0.44 0.376,0.93 0.376,1.46v1.17h1.682c0.157,0 0.289,0.05 0.398,0.17c0.108,0.11 0.162,0.25 0.162,0.41v7c0,0.16 -0.054,0.3 -0.162,0.42c-0.109,0.11 -0.241,0.16 -0.398,0.16h-8.97c-0.157,0 -0.29,-0.05 -0.399,-0.16c-0.108,-0.12 -0.162,-0.26 -0.162,-0.42v-7c0,-0.16 0.054,-0.3 0.162,-0.41c0.109,-0.12 0.242,-0.17 0.399,-0.17zM2.2418,5.245h-1.121v5.84h7.849v-5.84h-1.121v1.17h-1.122v-1.17h-3.363v1.17h-1.122zM3.3638,4.085h3.363v-1.17c0,-0.32 -0.074,-0.61 -0.224,-0.88c-0.149,-0.27 -0.353,-0.48 -0.611,-0.64c-0.258,-0.15 -0.54,-0.23 -0.846,-0.23c-0.307,0 -0.589,0.08 -0.847,0.23c-0.258,0.16 -0.462,0.37 -0.611,0.64c-0.15,0.27 -0.224,0.56 -0.224,0.88z" fill="currentColor" xmlns="http://www.w3.org/2000/svg"/></svg>