<svg viewBox="0 0 24 24" x="0" y="0" fill="none" xmlns="http://www.w3.org/2000/svg"><g id="feather:more-vertical" xmlns="http://www.w3.org/2000/svg">
<path id="Vector" d="M12,13c0.55,0 1,-0.45 1,-1c0,-0.55 -0.45,-1 -1,-1c-0.55,0 -1,0.45 -1,1c0,0.55 0.45,1 1,1z" stroke="#808080" stroke-width="2" stroke-linecap="round" stroke-linejoin="round"/>
<path id="Vector_2" d="M12,6c0.55,0 1,-0.45 1,-1c0,-0.55 -0.45,-1 -1,-1c-0.55,0 -1,0.45 -1,1c0,0.55 0.45,1 1,1z" stroke="#808080" stroke-width="2" stroke-linecap="round" stroke-linejoin="round"/>
<path id="Vector_3" d="M12,20c0.55,0 1,-0.45 1,-1c0,-0.55 -0.45,-1 -1,-1c-0.55,0 -1,0.45 -1,1c0,0.55 0.45,1 1,1z" stroke="#808080" stroke-width="2" stroke-linecap="round" stroke-linejoin="round"/>
</g></svg>