<svg viewBox="0 0 19.8904 19.9021" x="0" y="0" fill="none" xmlns="http://www.w3.org/2000/svg"><path id="Vector_2" d="M14.585,12.8317h-0.922l-0.326,-0.31c0.729,-0.85 1.262,-1.85 1.56,-2.92c0.299,-1.08 0.355,-2.21 0.166,-3.31c-0.548,-3.25 -3.255,-5.84 -6.521,-6.23c-1.149,-0.15 -2.315,-0.03 -3.41,0.35c-1.096,0.37 -2.091,0.99 -2.909,1.81c-0.819,0.82 -1.439,1.81 -1.814,2.91c-0.375,1.1 -0.494,2.26 -0.349,3.41c0.397,3.27 2.987,5.97 6.23,6.52c1.102,0.19 2.231,0.13 3.308,-0.16c1.077,-0.3 2.075,-0.84 2.922,-1.57l0.315,0.33v0.92l4.958,4.96c0.479,0.48 1.26,0.48 1.739,0c0.478,-0.48 0.478,-1.26 0,-1.74zM7.585,12.8317c-2.905,0 -5.25,-2.34 -5.25,-5.25c0,-2.9 2.345,-5.25 5.25,-5.25c2.905,0 5.25,2.35 5.25,5.25c0,2.91 -2.345,5.25 -5.25,5.25z" fill="currentColor" xmlns="http://www.w3.org/2000/svg"/></svg>