<svg viewBox="0 0 600 32" x="0" y="0" fill="none" xmlns="http://www.w3.org/2000/svg"><g id="DIV-337" xmlns="http://www.w3.org/2000/svg">
<g id="A-338">
<path d="M0,8c0,-4.42 3.582,-8 8,-8h16c4.418,0 8,3.58 8,8v16c0,4.42 -3.582,8 -8,8h-16c-4.418,0 -8,-3.58 -8,-8z" fill="currentColor" fill-opacity="0.1"/>
<g id="I-339">
<g id="Icon-340">
<g id="Group_5">
<path id="Vector_31" d="M16.987,16.88h1.401l0.561,-2.34h-1.962v-1.16c0,-0.27 0.011,-0.46 0.033,-0.58c0.045,-0.18 0.142,-0.33 0.292,-0.43c0.179,-0.11 0.445,-0.16 0.796,-0.16h0.841v-1.96c-0.127,-0.02 -0.329,-0.03 -0.606,-0.05c-0.343,-0.02 -0.676,-0.03 -0.998,-0.03c-0.515,0 -0.969,0.1 -1.362,0.32c-0.392,0.21 -0.693,0.52 -0.902,0.91c-0.225,0.43 -0.337,0.93 -0.337,1.51v1.63h-1.682v2.34h1.682v4.95h2.243z" fill="currentColor"/>
</g>
</g>
</g>
</g>
<g id="margin-wrap_22">
<g id="A-341">
<path d="M48,8c0,-4.42 3.582,-8 8,-8h16c4.418,0 8,3.58 8,8v16c0,4.42 -3.582,8 -8,8h-16c-4.418,0 -8,-3.58 -8,-8z" fill="currentColor" fill-opacity="0.1"/>
<g id="I-342">
<g id="Icon-343">
<g id="Group_6">
<path id="Vector_32" d="M69.718,12.31c-0.433,0.2 -0.882,0.33 -1.345,0.39c0.239,-0.16 0.448,-0.35 0.628,-0.58c0.179,-0.24 0.31,-0.49 0.392,-0.77c-0.463,0.28 -0.957,0.48 -1.48,0.59c-0.224,-0.25 -0.486,-0.44 -0.785,-0.57c-0.299,-0.13 -0.609,-0.2 -0.93,-0.2c-0.426,0 -0.819,0.11 -1.178,0.33c-0.358,0.21 -0.643,0.51 -0.852,0.88c-0.209,0.38 -0.314,0.79 -0.314,1.23c0,0.19 0.019,0.37 0.056,0.56c-0.956,-0.06 -1.861,-0.31 -2.713,-0.76c-0.822,-0.44 -1.529,-1.04 -2.119,-1.8c-0.21,0.38 -0.314,0.79 -0.314,1.23c0,0.42 0.093,0.81 0.28,1.17c0.187,0.35 0.441,0.64 0.763,0.86c-0.374,-0.01 -0.729,-0.11 -1.066,-0.3v0.03c0,0.39 0.083,0.75 0.247,1.09c0.164,0.33 0.391,0.61 0.678,0.84c0.288,0.23 0.608,0.38 0.959,0.46c-0.202,0.06 -0.407,0.08 -0.617,0.08c-0.149,0 -0.295,-0.01 -0.437,-0.04c0.15,0.49 0.424,0.89 0.824,1.2c0.4,0.32 0.854,0.48 1.363,0.5c-0.419,0.33 -0.877,0.59 -1.374,0.77c-0.497,0.18 -1.011,0.27 -1.542,0.27c-0.187,0 -0.373,-0.01 -0.56,-0.04c0.538,0.36 1.113,0.63 1.726,0.82c0.613,0.19 1.237,0.28 1.873,0.28c1.031,0 1.984,-0.21 2.859,-0.63c0.8,-0.39 1.499,-0.93 2.097,-1.63c0.553,-0.66 0.979,-1.4 1.278,-2.23c0.292,-0.81 0.437,-1.63 0.437,-2.45c0,-0.1 -0.003,-0.21 -0.011,-0.32c0.464,-0.35 0.856,-0.77 1.177,-1.26z" fill="currentColor"/>
</g>
</g>
</g>
</g>
</g>
<g id="margin-wrap_23">
<g id="A-344">
<path d="M96,8c0,-4.42 3.582,-8 8,-8h16c4.418,0 8,3.58 8,8v16c0,4.42 -3.582,8 -8,8h-16c-4.418,0 -8,-3.58 -8,-8z" fill="currentColor" fill-opacity="0.1"/>
<g id="I-345">
<g id="Icon-346">
<g id="Group_7">
<path id="Vector_33" d="M108.905,11.92c-0.007,0.24 -0.074,0.46 -0.201,0.65c-0.128,0.19 -0.296,0.34 -0.505,0.43c-0.209,0.09 -0.426,0.11 -0.65,0.06c-0.225,-0.05 -0.417,-0.16 -0.578,-0.33c-0.161,-0.17 -0.26,-0.37 -0.297,-0.6c-0.037,-0.24 -0.011,-0.46 0.079,-0.68c0.089,-0.22 0.231,-0.39 0.426,-0.52c0.194,-0.13 0.407,-0.19 0.639,-0.18c0.299,0.01 0.555,0.12 0.768,0.35c0.213,0.23 0.319,0.5 0.319,0.82zM108.939,13.95h-2.243v7.3h2.243zM112.482,13.95h-2.231v7.3h2.209v-3.83c0,-0.41 0.089,-0.76 0.269,-1.05c0.172,-0.26 0.392,-0.44 0.661,-0.55c0.269,-0.1 0.539,-0.1 0.808,-0.02c0.269,0.09 0.486,0.26 0.65,0.52c0.187,0.29 0.28,0.66 0.28,1.1v3.83h2.22v-4.62c0,-0.68 -0.142,-1.26 -0.426,-1.74c-0.246,-0.41 -0.59,-0.72 -1.031,-0.93c-0.404,-0.18 -0.841,-0.26 -1.312,-0.24c-0.456,0.03 -0.878,0.15 -1.267,0.36c-0.389,0.21 -0.673,0.5 -0.852,0.85z" fill="currentColor"/>
</g>
</g>
</g>
</g>
</g>
</g></svg>